<svg width="512" height="512" viewBox="0 0 512 512" fill="none" xmlns="http://www.w3.org/2000/svg">
<path d="M512 370.472V484.63H225.219C141.667 484.63 68.7148 438.719 29.6837 370.472C24.0096 360.551 19.0435 350.143 14.8778 339.338C6.70013 318.168 1.5596 295.45 0 271.747V240.883C0.338598 235.6 0.872146 230.359 1.56986 225.181C2.99608 214.555 5.15079 204.156 7.9827 194.047C34.773 98.2171 121.885 28 225.219 28C328.553 28 415.654 98.2171 442.444 194.047H319.821C299.689 162.81 264.845 142.158 225.219 142.158C185.592 142.158 150.748 162.81 130.617 194.047C124.481 203.543 119.72 214.014 116.601 225.181C113.83 235.082 112.353 245.523 112.353 256.316C112.353 289.036 125.958 318.53 147.772 339.338C167.985 358.652 195.237 370.472 225.219 370.472H512Z" fill="#FD366E"/>
<path d="M511.998 225.18V339.338H302.663C324.476 318.53 338.082 289.036 338.082 256.314C338.082 245.521 336.604 235.08 333.834 225.18H511.998Z" fill="#FD366E"/>
</svg>
