<svg width="32" height="24" viewBox="0 0 32 24" fill="none" xmlns="http://www.w3.org/2000/svg">
<path d="M31.2487 9.26536C31.1644 9.19835 30.3767 8.60359 28.7155 8.60359C28.2769 8.60551 27.8392 8.64313 27.4067 8.7161C27.0852 6.51246 25.2633 5.43806 25.1816 5.38986L24.7356 5.13263L24.4422 5.55597C24.0748 6.12464 23.8066 6.75153 23.6491 7.40999C23.3517 8.6679 23.5326 9.8494 24.1716 10.8595C23.4 11.2895 22.1622 11.3953 21.9117 11.4047H1.41832C0.883037 11.4054 0.448682 11.838 0.445765 12.3732C0.421861 14.1686 0.726032 15.9532 1.3433 17.6392C2.04926 19.4906 3.09953 20.8543 4.46594 21.6889C5.99711 22.6266 8.48477 23.1625 11.3046 23.1625C12.5785 23.1665 13.85 23.0512 15.1025 22.8182C16.8435 22.4985 18.5187 21.89 20.059 21.0177C21.3282 20.2828 22.4704 19.3478 23.4415 18.2487C25.0651 16.4108 26.0324 14.3638 26.7517 12.5447H27.0384C28.816 12.5447 29.9092 11.8333 30.512 11.2372C30.9126 10.857 31.2254 10.3939 31.4283 9.88023L31.5556 9.50783L31.2487 9.26536Z" fill="#2496ED"/>
<path d="M3.3179 10.8046H6.0641C6.19655 10.8046 6.30387 10.6972 6.30387 10.5648V8.11863C6.30461 7.98618 6.19785 7.87824 6.06545 7.8775C6.06501 7.8775 6.06453 7.8775 6.0641 7.8775H3.3179C3.18545 7.8775 3.07812 7.98487 3.07812 8.11728V8.11863V10.5647C3.07812 10.6972 3.18545 10.8046 3.3179 10.8046Z" fill="#2496ED"/>
<path d="M7.10231 10.8046H9.84851C9.98096 10.8046 10.0883 10.6972 10.0883 10.5648V8.11863C10.089 7.98618 9.98227 7.87824 9.84982 7.8775C9.84938 7.8775 9.8489 7.8775 9.84847 7.8775H7.10227C6.96908 7.8775 6.86115 7.98544 6.86115 8.11863V10.5647C6.86193 10.6974 6.96965 10.8046 7.10231 10.8046Z" fill="#2496ED"/>
<path d="M10.9443 10.8046H13.6905C13.8229 10.8046 13.9303 10.6972 13.9303 10.5648V8.11863C13.931 7.98618 13.8242 7.87824 13.6918 7.8775C13.6914 7.8775 13.6909 7.8775 13.6904 7.8775H10.9442C10.8118 7.8775 10.7045 7.98487 10.7045 8.11728V8.11863V10.5647C10.7045 10.6972 10.8119 10.8046 10.9443 10.8046Z" fill="#2496ED"/>
<path d="M14.7408 10.8046H17.4869C17.6196 10.8046 17.7273 10.6975 17.7281 10.5648V8.11863C17.7281 7.98544 17.6201 7.8775 17.4869 7.8775H14.7408C14.6083 7.8775 14.501 7.98487 14.501 8.11728V8.11863V10.5647C14.501 10.6972 14.6083 10.8046 14.7408 10.8046Z" fill="#2496ED"/>
<path d="M7.10227 7.28542H9.84847C9.98109 7.28468 10.0882 7.17692 10.0882 7.04429V4.59817C10.0882 4.46572 9.98087 4.3584 9.84847 4.3584H7.10227C6.96965 4.3584 6.86189 4.46551 6.86115 4.59817V7.04429C6.86189 7.17718 6.96939 7.28468 7.10227 7.28542Z" fill="#2496ED"/>
<path d="M10.9442 7.28542H13.6904C13.8231 7.28468 13.9302 7.17692 13.9302 7.04429V4.59817C13.9302 4.46572 13.8228 4.3584 13.6904 4.3584H10.9442C10.8118 4.3584 10.7045 4.46577 10.7045 4.59817V7.04429C10.7045 7.17692 10.8116 7.28468 10.9442 7.28542Z" fill="#2496ED"/>
<path d="M14.7408 7.28542H17.4869C17.6198 7.28468 17.7273 7.17718 17.7281 7.04429V4.59817C17.7273 4.46551 17.6196 4.3584 17.4869 4.3584H14.7408C14.6083 4.3584 14.501 4.46577 14.501 4.59817V7.04429C14.501 7.17692 14.6081 7.28468 14.7408 7.28542Z" fill="#2496ED"/>
<path d="M14.7408 3.76495H17.4869C17.6196 3.76495 17.7273 3.6578 17.7281 3.52518V1.07767C17.7273 0.944999 17.6196 0.837891 17.4869 0.837891H14.7408C14.6083 0.837891 14.501 0.945217 14.501 1.07767V3.52514C14.501 3.65758 14.6083 3.76495 14.7408 3.76495Z" fill="#2496ED"/>
<path d="M18.5706 10.8046H21.3168C21.4495 10.8046 21.5572 10.6975 21.558 10.5648V8.11863C21.558 7.98544 21.45 7.8775 21.3168 7.8775H18.5706C18.4382 7.8775 18.3309 7.98487 18.3309 8.11728V8.11863V10.5647C18.3309 10.6972 18.4382 10.8046 18.5706 10.8046Z" fill="#2496ED"/>
</svg>
