<svg viewBox="0 0 534 549.685">
  <g id="Hero_image" transform="translate(-25.63 -24.878)">
    <g id="freepik--Floor--inject-64" transform="translate(25.63 278.901)" opacity="0.03">
      <ellipse id="freepik--floor--inject-64-2" data-name="freepik--floor--inject-64" cx="267" cy="147.831" rx="267" ry="147.831" fill="#f5f5f5"/>
    </g>
    <g id="freepik--Shadows--inject-64" transform="translate(97.694 277.229)" opacity="0.08">
      <path id="freepik--Shadow--inject-64" d="M510.693,363.434,361.851,449.406a4.394,4.394,0,0,1-4,0l-214.6-123.837a1.191,1.191,0,0,1,0-2.31L292.1,237.287a4.394,4.394,0,0,1,4,0l214.6,123.837a1.191,1.191,0,0,1,0,2.31Z" transform="translate(-75.43 -236.805)" fill="#1c2830"/>
      <ellipse id="freepik--shadow--inject-64-2" data-name="freepik--shadow--inject-64" cx="89.401" cy="51.619" rx="89.401" ry="51.619" transform="translate(0 157.457)" fill="#1c2830" opacity="0.07"/>
      <ellipse id="freepik--shadow--inject-64-3" data-name="freepik--shadow--inject-64" cx="70.373" cy="40.628" rx="70.373" ry="40.628" transform="translate(127.886 108.601)" fill="#1c2830"/>
      <ellipse id="freepik--shadow--inject-64-4" data-name="freepik--shadow--inject-64" cx="44.177" cy="25.506" rx="44.177" ry="25.506" transform="translate(310.593 178.188)" fill="#1c2830"/>
    </g>
    <g id="freepik--Desk--inject-64" transform="translate(180.629 39.285)">
      <g id="freepik--desk--inject-64-2" data-name="freepik--desk--inject-64">
        <g id="freepik--Table--inject-64" transform="translate(0 107.804)">
          <path id="Path_3" data-name="Path 3" d="M331.182,286.512V418.684a2.953,2.953,0,0,1-1.334,2.31l-2.834,1.631a2.929,2.929,0,0,1-2.667,0l-2.834-1.631a2.953,2.953,0,0,1-1.334-2.31V286.512c0-.845.6-1.191,1.334-.762l2.834,1.631a2.929,2.929,0,0,0,2.667,0l2.834-1.631C330.587,285.321,331.182,285.666,331.182,286.512Z" transform="translate(-124.446 -97.365)" fill="#37474f"/>
          <path id="Path_4" data-name="Path 4" d="M324.348,422.566l-2.834-1.631a2.953,2.953,0,0,1-1.334-2.31V286.512c0-.845.6-1.191,1.334-.762l2.834,1.631a2.953,2.953,0,0,1,1.334,2.274V421.827C325.681,422.649,325.086,423.018,324.348,422.566Z" transform="translate(-124.446 -97.365)" fill="#455a64"/>
          <path id="Path_5" data-name="Path 5" d="M432.693,227.873v132.1a2.917,2.917,0,0,1-1.334,2.31l-2.834,1.667a3,3,0,0,1-2.667,0l-2.834-1.643A2.953,2.953,0,0,1,421.69,360V227.873c0-.845.607-1.191,1.334-.774l2.834,1.643a2.929,2.929,0,0,0,2.667,0l2.834-1.643C432.1,226.682,432.693,227.015,432.693,227.873Z" transform="translate(-105.084 -108.551)" fill="#37474f"/>
          <path id="Path_6" data-name="Path 6" d="M425.858,363.95l-2.834-1.643A2.953,2.953,0,0,1,421.69,360V227.872c0-.845.607-1.191,1.334-.774l2.834,1.643a2.941,2.941,0,0,1,1.334,2.31v132.1A.837.837,0,0,1,425.858,363.95Z" transform="translate(-105.084 -108.551)" fill="#455a64"/>
          <path id="Path_7" data-name="Path 7" d="M194.472,207.622V339.794a2.953,2.953,0,0,1-1.334,2.31l-2.834,1.631a2.929,2.929,0,0,1-2.667,0L184.8,342.1a2.953,2.953,0,0,1-1.334-2.31V207.622c0-.845.6-1.191,1.334-.762l2.87,1.631a2.929,2.929,0,0,0,2.667,0l2.834-1.631C193.877,206.431,194.472,206.776,194.472,207.622Z" transform="translate(-150.522 -112.413)" fill="#37474f"/>
          <path id="Path_8" data-name="Path 8" d="M187.668,343.685l-2.834-1.631a2.953,2.953,0,0,1-1.334-2.31V207.572c0-.845.6-1.191,1.334-.762l2.834,1.691A2.953,2.953,0,0,1,189,210.81v132.1C188.966,343.769,188.37,344.114,187.668,343.685Z" transform="translate(-150.516 -112.422)" fill="#455a64"/>
          <path id="Path_9" data-name="Path 9" d="M509.688,256.229v-.965a5.346,5.346,0,0,0-2.381-4.2L294.164,128.093a5.37,5.37,0,0,0-4.858,0L158.182,203.824a5.346,5.346,0,0,0-2.382,4.2v1.036a5.346,5.346,0,0,0,2.381,4.2L371.324,336.223a5.454,5.454,0,0,0,4.858,0l131.124-75.791A5.346,5.346,0,0,0,509.688,256.229Z" transform="translate(-155.8 -127.512)" fill="#fff"/>
          <path id="Path_10" data-name="Path 10" d="M509.688,256.229v-.965a5.346,5.346,0,0,0-2.381-4.2L294.164,128.093a5.37,5.37,0,0,0-4.858,0L158.182,203.824a5.346,5.346,0,0,0-2.382,4.2v1.036a5.346,5.346,0,0,0,2.381,4.2L371.324,336.223a5.454,5.454,0,0,0,4.858,0l131.124-75.791A5.346,5.346,0,0,0,509.688,256.229Z" transform="translate(-155.8 -127.512)" opacity="0.6"/>
          <path id="Path_11" data-name="Path 11" d="M338.82,310.343v6.573a5.049,5.049,0,0,0,2.381-.583L472.4,240.6a5.37,5.37,0,0,0,2.382-4.2v-.976a5.394,5.394,0,0,0-1.977-3.882c.869.75.726,1.786-.452,2.489L341.225,309.76a4.917,4.917,0,0,1-2.405.584Z" transform="translate(-120.891 -107.67)" fill="#fff"/>
          <path id="Path_12" data-name="Path 12" d="M338.82,310.343v6.573a5.049,5.049,0,0,0,2.381-.583L472.4,240.6a5.37,5.37,0,0,0,2.382-4.2v-.976a5.394,5.394,0,0,0-1.977-3.882c.869.75.726,1.786-.452,2.489L341.225,309.76a4.917,4.917,0,0,1-2.405.584Z" transform="translate(-120.891 -107.67)" opacity="0.5"/>
          <path id="Path_13" data-name="Path 13" d="M507.092,253.859,375.944,329.6a5.37,5.37,0,0,1-4.858,0L157.931,206.682a1.477,1.477,0,0,1,0-2.8l131.124-75.791a5.37,5.37,0,0,1,4.858,0L507.092,251.061a1.477,1.477,0,0,1,0,2.8Z" transform="translate(-155.585 -127.512)" fill="#fff"/>
          <path id="Path_14" data-name="Path 14" d="M507.092,253.859,375.944,329.6a5.37,5.37,0,0,1-4.858,0L157.931,206.682a1.477,1.477,0,0,1,0-2.8l131.124-75.791a5.37,5.37,0,0,1,4.858,0L507.092,251.061a1.477,1.477,0,0,1,0,2.8Z" transform="translate(-155.585 -127.512)" opacity="0.4"/>
        </g>
        <g id="freepik--Keyboard--inject-64" transform="translate(74.754 174.099)">
          <path id="freepik--shadow--inject-64-5" data-name="freepik--shadow--inject-64" d="M345.644,241.107l-31.066,17.98a3.87,3.87,0,0,1-3.489,0L219.306,206.17a1.06,1.06,0,0,1,0-2.012l31.066-17.992a3.882,3.882,0,0,1,3.477,0l91.794,52.928a1.06,1.06,0,0,1,0,2.012Z" transform="translate(-218.579 -182.698)" opacity="0.15"/>
          <g id="freepik--keyboard--inject-64-2" data-name="freepik--keyboard--inject-64" transform="translate(2.608 0)">
            <path id="Path_15" data-name="Path 15" d="M220.77,201.456a1.191,1.191,0,0,1,.726-1l29.185-16.849a3.81,3.81,0,0,1,3.477,0l89.067,51.5a1.191,1.191,0,0,1,.714,1.012v3.06a1.191,1.191,0,0,1-.714,1l-29.173,16.849a3.834,3.834,0,0,1-3.489,0L221.5,205.588a1.191,1.191,0,0,1-.726-1Z" transform="translate(-220.769 -183.188)" fill="#263238"/>
            <path id="Path_16" data-name="Path 16" d="M314.053,253.9l29.173-16.778a1.06,1.06,0,0,0,0-2.012l-89.067-51.5a3.81,3.81,0,0,0-3.477,0L221.5,200.456a1.06,1.06,0,0,0,0,2.012l89.067,51.416a3.87,3.87,0,0,0,3.489.012Z" transform="translate(-220.769 -183.188)" fill="#37474f"/>
            <path id="Path_17" data-name="Path 17" d="M297.74,245.825v3.132a3.477,3.477,0,0,0,1.631-.4l29.161-16.837a1.191,1.191,0,0,0,.726-1.012V227.63a1.191,1.191,0,0,1-.726,1.012L299.371,245.42A3.572,3.572,0,0,1,297.74,245.825Z" transform="translate(-206.088 -174.711)" fill="#263238"/>
            <path id="Path_18" data-name="Path 18" d="M225.314,201.158h0l2.882-1.667,3.918,2.262-2.905,1.727-3.918-2.262Zm4.525-2.608,2.893-1.667,3.084,1.774-2.905,1.643-3.072-1.774Zm.953,5.775,2.893-1.667,3.072,1.774-2.905,1.727-3.072-1.774Zm3.572-8.335h0l2.893-1.667,4.965,2.882-2.905,1.715-4.965-2.87Zm.107,5.287h0l2.882-1.679,2.453,1.417-2.893,1.667-2.441-1.441Zm.953,5.763h0l2.882-1.667,3.084,1.774-2.917,1.727L235.4,207.1Zm3.048-3.453,2.882-1.667,2.382,1.417-2.905,1.727-2.381-1.417Zm.4-10.217h0l2.893-1.667,3.918,2.262-2.882,1.643-3.918-2.262Zm1.191,16.349h0l2.882-1.667,22.243,12.836-2.905,1.727-22.243-12.836Zm.833-9.967h0l2.882-1.667,2.382,1.417-2.905,1.715-2.441-1.405Zm1.584,6.144,2.882-1.667,2.441,1.417-2.905,1.727-2.441-1.417Zm.917-15.122h0l2.882-1.667,2.453,1.417-2.905,1.715-2.417-1.465Zm.953,5.775h0l2.882-1.667,2.453,1.405-2.882,1.631-2.453-1.405Zm.536,5.525h0l2.882-1.667,2.441,1.417-2.905,1.715-2.441-1.405Zm1.584,6.144,2.882-1.667,2.381,1.417-2.905,1.727-2.382-1.417Zm.929-15.134h0l2.882-1.667,2.453,1.417-2.905,1.715-2.382-1.405Zm.953,5.775h0l2.882-1.667,2.453,1.405-2.905,1.727-2.441-1.405Zm.536,5.525h0l2.882-1.667,2.381,1.417-2.905,1.715-2.382-1.405Zm0-16.778h0l2.882-1.667,3.084,1.774-2.917,1.727-3.072-1.774Zm1.584,22.922,2.882-1.667,2.441,1.417-2.905,1.727-2.441-1.417Zm.929-15.134h0l2.882-1.667,2.453,1.417-2.882,1.584-2.441-1.405Zm.953,5.775h0l2.882-1.667,2.453,1.405-2.905,1.727-2.453-1.5Zm.536,5.525h0l2.882-1.667,2.441,1.417-2.905,1.715-2.441-1.405Zm1.584,6.144,2.882-1.667,2.382,1.417-2.905,1.727-2.381-1.417Zm.786-21.552h0l2.893-1.667,2.441,1.405-2.905,1.727-2.441-1.405Zm.143,6.418h0l2.882-1.667,2.453,1.417-2.893,1.655-2.382-1.405Zm.953,5.775h0l2.882-1.667,2.453,1.405-2.905,1.727-2.441-1.405Zm.536,5.525h0l2.882-1.667,2.382,1.417-2.905,1.715-2.381-1.405Zm1.584,6.144h0l2.905-1.75,2.381,1.417-2.905,1.727-2.441-1.417Zm.786-21.552h0l2.882-1.667,2.453,1.405-2.905,1.727-2.381-1.405Zm.143,6.418h0l2.882-1.667,2.453,1.417-2.882,1.619-2.381-1.405Zm.953,5.775h0l2.882-1.667,2.453,1.405-2.905,1.727-2.441-1.405Zm.536,5.525h0l2.893-1.667,2.441,1.417-2.905,1.715-2.441-1.405Zm1.584,6.144h0l2.882-1.679L267.8,217.2l-2.905,1.727-2.441-1.417Zm.786-21.552h0l2.893-1.667,2.441,1.405-2.905,1.727-2.441-1.405Zm.143,6.418h0l2.893-1.667,2.441,1.417-2.917,1.715-2.381-1.405Zm.441,21.148,2.893-1.667,3.072,1.774-2.905,1.727-3.072-1.774Zm.512-15.372h0l2.882-1.667,2.453,1.405-2.905,1.727-2.441-1.405Zm.536,5.525h0l2.893-1.667,2.405,1.322-2.905,1.715-2.441-1.405Zm1.584,6.144,2.882-1.667,2.453,1.417-2.917,1.727-2.441-1.417Zm.786-21.552h0l2.893-1.667,2.417,1.369-2.905,1.727-2.441-1.405Zm.143,6.418h0l2.893-1.667,2.441,1.417-2.905,1.715-2.441-1.405Zm.953,5.775h0l2.893-1.667,2.381,1.405-2.905,1.727-2.382-1.405Zm.119,15.73h0l2.893-1.667,3.072,1.774-2.905,1.727-3.072-1.774Zm.417-10.2h0l2.882-1.667,2.382,1.417-2.774,1.619L269,215.9Zm1.584,6.144,2.882-1.667,2.453,1.417-2.917,1.727-2.441-1.417Zm.929-15.134h0l2.893-1.667,2.382,1.417-2.905,1.715-2.393-1.5Zm.953,5.775h0l2.893-1.667,2.441,1.405-2.905,1.727-2.441-1.405Zm.536,5.525h0l2.882-1.667,2.441,1.417-2.905,1.715-2.417-1.548Zm.119-16.67h0l2.893-1.667,2.441,1.417-2.905,1.727-2.429-1.56Zm.1,27.28L276,227.187l3.072,1.774-2.929,1.6-3.072-1.774Zm1.369-4.43h0l2.882-1.679,2.453,1.417-2.917,1.727-2.382-1.417Zm.929-15.134,2.882-1.667,2.453,1.417-2.905,1.715L275.4,209.35Zm.953,5.775h0l2.893-1.667L281.7,214.8l-2.905,1.727-2.441-1.405Zm.536,5.525h0l2.882-1.667,2.453,1.417-2.917,1.715-2.417-1.512Zm.119-16.67h0l2.893-1.667,2.441,1.417-2.905,1.727-2.381-1.417Zm.738,27.649,2.893-1.679,3.918,2.262-2.905,1.727-3.918-2.262Zm.726-4.763h0l2.882-1.679,7.716,4.453-2.905,1.727-7.645-4.656Zm.929-15.134h0L282.3,210l2.441,1.417-2.905,1.715-2.441-1.405Zm.953,5.775h0l2.893-1.667,2.417,1.191-2.905,1.727-2.441-1.405Zm.536,5.525h0l2.882-1.667,2.453,1.417-2.941,1.512-2.382-1.405Zm.119-16.67h0l2.893-1.667,2.441,1.417-2.905,1.727L281,206.361Zm2.381,7.716h0l2.893-1.667,2.441,1.417-2.905,1.715-2.441-1.405Zm.655,21.267h0l2.882-1.667,2.453,1.405-2.917,1.727-2.381-1.405Zm.3-15.48h0l2.893-1.667,2.381,1.405-2.762,1.477-2.382-1.405Zm.536,5.525h0l2.882-1.667,2.239,1.286a1.429,1.429,0,0,0,.7.155,1.584,1.584,0,0,0,.738-.155l3.8-2.191,2.858,1.655-7.418,4.334-5.823-3.358Zm.119-16.67h0l2.893-1.667,2.441,1.417-2.882,1.417-2.441-1.417Zm2.381,7.716h0l2.882-1.667,2.453,1.417-2.905,1.715-2.382-1.405Zm.655,21.267h0l2.882-1.667,2.453,1.405-2.917,1.727-2.382-1.405Zm.3-15.48h0l2.893-1.667,2.441,1.405-2.905,1.727-2.441-1.405Zm2.382-10.181h0l2.882-1.667,2.453,1.405-2.917,1.727-2.441-1.405Zm.655,6.716h0l2.882-1.667,2.453,1.417-2.905,1.715-2.441-1.405Zm.655,21.267h0l2.893-1.667,2.441,1.405-2.917,1.727-2.382-1.405Zm.524-4.918,2.882-1.667,2.453,1.417-2.917,1.727-2.381-1.691Zm2.167-20.755h0l2.882-1.667,2.441,1.405-2.905,1.727-2.441-1.405Zm.655,6.716h0l2.893-1.667,4.334,2.5-2.905,1.727-4.334-2.5Zm1.5,21.755h0l2.882-1.667,6.454,3.715-2.917,1.727-6.442-3.715Zm.714-15.253h0l2.893-1.667,2.441,1.417-2.905,1.715-2.441-1.405Zm1.131-10.907h0l2.882-1.667,2.441,1.405-2.893,1.429-2.381-1.405Zm2.679,23.553h0l2.893-1.667,2.441,1.417-2.905,1.727-2.441-1.417Zm.191-10.336h0l2.893-1.667,2.382,1.417-2.905,1.715-2.381-1.405Zm.524-4.918h0l2.893-1.667,2.382,1.405-2.905,1.727-2.381-1.405Zm.607-5.954h0l2.882-1.667,2.381,1.405-2.905,1.727-2.382-1.405Zm2.155,28.471h0l2.882-1.667,2.453,1.405-2.917,1.727-2.382-1.405Zm.524-4.918h0l2.893-1.667,2.381,1.417-2.905,1.727-2.382-1.417Zm.191-10.336h0l2.893-1.667,2.441,1.417-2.905,1.715-2.441-1.405Zm.333,5.406,2.893-1.667,2.382,1.417-2.905,1.715-2.381-1.405Zm.191-10.324h0l2.893-1.667,2.441,1.405-2.905,1.727-2.441-1.405Zm1.488-5.477h0l2.882-1.667,2.453,1.405-2.846,1.417-2.441-1.405Zm1.274,27.959h0l7.406-4.287,2.441,1.417-7.418,4.334-2.453-1.405Zm.524-4.918h0l2.893-1.667,2.441,1.417-2.87,1.381-2.381-1.417Zm.524-4.93,2.893-1.667,2.441,1.417-2.905,1.715-2.393-1.75Zm.191-10.324h0l2.893-1.667,2.441,1.405-2.905,1.727-2.441-1.405Zm.321,5.406h0l2.893-1.667,2.441,1.405-2.905,1.727-2.441-1.405Zm1.191-10.883h0l2.882-1.667,2.453,1.405-2.905,1.727-2.441-1.405Zm2.322,18.111,2.893-1.667,2.441,1.417-2.905,1.727-2.417-1.691Zm.512-4.918h0l2.893-1.667,2.441,1.405-2.87,1.393L314.488,237Zm.524-4.918h0l2.882-1.667,2.453,1.405-2.917,1.727-2.381-1.405Zm.643-5.954h0l2.882-1.667,2.453,1.405-2.905,1.727-2.441-1.405Zm2.322,18.111h0l7.418-4.275,2.441,1.405-7.43,4.346-2.441-1.417Zm.512-4.918h0l2.893-1.667,2.441,1.405-2.905,1.727-2.441-1.405Zm.524-4.918h0l2.882-1.667,2.453,1.405-2.929,1.381-2.382-1.405Zm2.655-6.156h0l1.191-.726,2.453,1.417-1.262.774-2.382-1.405Zm1.346,8.466h0l2.882-1.667,2.453,1.405-2.917,1.727-2.381-1.405Zm2.655-6.156h0l1.191-.726,2.453,1.417-1.262.774-2.381-1.405Zm1.346,8.466h0l2.882-1.667,2.453,1.405-2.917,1.727-2.382-1.405Zm2.655-6.156h0l1.191-.726,2.453,1.417-1.262.774-2.381-1.405Zm3.989,2.31h0l1.191-.726,2.453,1.417-1.262.774-2.382-1.405Z" transform="translate(-219.907 -182.663)" fill="#fff"/>
          </g>
        </g>
        <g id="freepik--Device--inject-64" transform="translate(136.959 22.127)">
          <path id="freepik--shadow--inject-64-6" data-name="freepik--shadow--inject-64" d="M407.469,250.336,434.8,234.559l-136.649-78.9L270.82,171.437Z" transform="translate(-270.82 -36.466)" opacity="0.15"/>
          <g id="freepik--Monitor--inject-64" transform="translate(4.593)">
            <path id="Path_19" data-name="Path 19" d="M324.2,222.578l-19.5-11.288c-2.012-1.191-3.025-2.679-3.025-4.2v-2.715l18.361-10.419a4.31,4.31,0,0,0,1.941-3.37V166.53l34.079,19.695v24.053a4.311,4.311,0,0,1-1.941,3.37l-15.337,8.931A16.123,16.123,0,0,1,324.2,222.578Z" transform="translate(-269.528 -34.393)" fill="#e6e6e6"/>
            <path id="Path_20" data-name="Path 20" d="M340.47,211.983v2.7l6.239-3.572a4.287,4.287,0,0,0,1.941-3.37V183.691l-6.49-3.751c-.131,1.655-.286,3.358-.417,5.013l4.549,2.643v18.79a4.251,4.251,0,0,1-1.941,3.37Z" transform="translate(-262.128 -31.835)" fill="#e0e0e0"/>
            <path id="Path_21" data-name="Path 21" d="M353.694,208.295a4.287,4.287,0,0,1-1.941,3.37l-12.979,7.573a16.123,16.123,0,0,1-14.575,0l-19.516-11.288c-4.025-2.31-4.025-6.085,0-8.407l12.991-7.573a4.287,4.287,0,0,0,1.941-3.358v-18.8L353.694,189.5Z" transform="translate(-269.529 -33.767)" fill="#f5f5f5"/>
            <path id="Path_22" data-name="Path 22" d="M311.79,194.256h0l3.953-2.286a4.287,4.287,0,0,0,1.941-3.358v-18.8L351.763,189.5v18.79a4.287,4.287,0,0,1-1.941,3.37l-3.882,2.251Z" transform="translate(-267.598 -33.767)" fill="#ebebeb"/>
            <path id="Path_23" data-name="Path 23" d="M301.67,198.31v2.715c0,1.524,1.012,3.036,3.013,4.2L324.2,216.5a14.67,14.67,0,0,0,6.954,1.727v-2.7A14.67,14.67,0,0,1,324.2,213.8l-19.516-11.288C302.682,201.358,301.67,199.834,301.67,198.31Z" transform="translate(-269.528 -28.331)" fill="#ebebeb"/>
            <path id="Path_24" data-name="Path 24" d="M413.569,256.045a5.2,5.2,0,0,1-4.7-.083l-131.8-76.041a5.346,5.346,0,0,1-2.381-4.2V60.3a4.561,4.561,0,0,1,6.99-4.037l131.791,76.1a5.346,5.346,0,0,1,2.382,4.2V251.925a5.191,5.191,0,0,1-2.274,4.12Z" transform="translate(-274.677 -55.56)" fill="#455a64"/>
            <path id="Path_25" data-name="Path 25" d="M408.865,255.469l-131.8-76.029a5.346,5.346,0,0,1-2.381-4.2V59.807c0-1.548,1.084-2.167,2.381-1.393l131.8,76.088a5.382,5.382,0,0,1,2.381,4.2V254.076C411.294,255.648,410.2,256.243,408.865,255.469Z" transform="translate(-274.676 -55.079)" fill="#37474f"/>
            <path id="Path_26" data-name="Path 26" d="M387.67,227.014a4.537,4.537,0,0,0,6.621-4.215V209.82l-4.549,2.6v12.979C389.742,226.848,388.849,227.479,387.67,227.014Z" transform="translate(-253.125 -26.136)" fill="#e0e0e0"/>
            <path id="Path_27" data-name="Path 27" d="M411.294,224.633v12.979c0,1.548-1.1,2.179-2.381,1.405L277.061,162.952a5.346,5.346,0,0,1-2.381-4.2V145.77Z" transform="translate(-274.676 -38.353)" fill="#fff"/>
            <path id="Path_28" data-name="Path 28" d="M406.01,230.327V139.021a3.239,3.239,0,0,0-1.453-2.524L279.923,64.552c-.8-.464-1.453-.1-1.453.834v91.306a3.2,3.2,0,0,0,1.453,2.524l124.635,71.957C405.32,231.637,406.01,231.256,406.01,230.327Z" transform="translate(-273.954 -53.883)" fill="#fff"/>
            <path id="Path_29" data-name="Path 29" d="M406.01,230.327V139.021a3.239,3.239,0,0,0-1.453-2.524L279.923,64.552c-.8-.464-1.453-.1-1.453.834v91.306a3.2,3.2,0,0,0,1.453,2.524l124.635,71.957C405.32,231.637,406.01,231.256,406.01,230.327Z" transform="translate(-273.954 -53.883)" fill="#fff" opacity="0.5"/>
            <path id="Path_30" data-name="Path 30" d="M332.366,183.118a5.049,5.049,0,0,1,2.274,3.941c0,1.453-1.024,2.048-2.274,1.322a5.049,5.049,0,0,1-2.286-3.953C330.116,183.035,331.175,182.392,332.366,183.118Z" transform="translate(-264.109 -31.286)" fill="#455a64"/>
            <path id="Path_31" data-name="Path 31" d="M388.81,124.2a5.239,5.239,0,0,1,.714,2.381V229.245l4.549-2.632V123.971a5,5,0,0,0-.714-2.381Z" transform="translate(-252.907 -42.965)" fill="#263238"/>
          </g>
        </g>
        <g id="freepik--Window--inject-64" transform="translate(163.06)">
          <g id="freepik--window--inject-64-2" data-name="freepik--window--inject-64">
            <path id="Path_32" data-name="Path 32" d="M292.752,39.737a1.344,1.344,0,0,1,0-.214h0a1.006,1.006,0,0,1,0-.2.952.952,0,0,1,.131-.3.393.393,0,0,1,.071-.119l.071-.083a.951.951,0,0,1,.155-.155h0a1.193,1.193,0,0,1,.2-.119,1.7,1.7,0,0,1,1.56.2l153.82,88.758a5.179,5.179,0,0,1,2.322,4.037V242.866h0v.512a1.584,1.584,0,0,1-.834,1.393l-.107.071-.119.071h-.2a1.192,1.192,0,0,1-.3,0,1.536,1.536,0,0,1-.762-.226H448.7l-2.048-1.25-151.593-87.5a5.144,5.144,0,0,1-2.322-4.025V39.987C292.74,39.928,292.752,39.833,292.752,39.737Z" transform="translate(-292.74 -36.698)" fill="#455a64"/>
            <path id="Path_33" data-name="Path 33" d="M293.38,38.767a1.7,1.7,0,0,1,1.56.2l153.82,88.758a5.18,5.18,0,0,1,2.322,4.037v7.645l2.965-1.738v-7.537a5.144,5.144,0,0,0-2.322-4.025L297.9,37.29a1.619,1.619,0,0,0-1.679-.143C295.809,37.409,293.88,38.5,293.38,38.767Z" transform="translate(-292.618 -36.977)" fill="#fff"/>
            <path id="Path_34" data-name="Path 34" d="M292.74,40.023c0-1.465,1.048-2.06,2.322-1.322l153.82,88.77A5.108,5.108,0,0,1,451.2,131.5v7.645L292.74,47.655Z" transform="translate(-292.74 -36.709)" fill="#fff"/>
            <g id="Group_13" data-name="Group 13" transform="translate(0.774 0)" opacity="0.5">
              <path id="Path_35" data-name="Path 35" d="M294.938,38.969l153.82,88.77a4.763,4.763,0,0,1,1.631,1.715l2.953-1.7a4.656,4.656,0,0,0-1.619-1.7L297.915,37.29a1.643,1.643,0,0,0-1.691-.143c-.417.262-2.382,1.357-2.834,1.619a1.643,1.643,0,0,1,1.548.2Z" transform="translate(-293.39 -36.978)" fill="#fff"/>
            </g>
            <path id="Path_36" data-name="Path 36" d="M428.908,123.091v-7.549a4.763,4.763,0,0,0-.7-2.382l-2.965,1.7a4.572,4.572,0,0,1,.7,2.31v7.7Z" transform="translate(-267.467 -22.446)" opacity="0.15"/>
            <path id="Path_37" data-name="Path 37" d="M421.63,114.562a3.465,3.465,0,0,1,1.31,2.786c0,1.107-.583,1.679-1.31,1.262a3.465,3.465,0,0,1-1.31-2.786C420.32,114.717,420.9,114.145,421.63,114.562Z" transform="translate(-268.405 -22.205)" fill="#455a64"/>
            <path id="Path_38" data-name="Path 38" d="M417.66,112.272a3.441,3.441,0,0,1,1.31,2.774c0,1.119-.584,1.679-1.31,1.262a3.442,3.442,0,0,1-1.31-2.774C416.35,112.415,416.934,111.855,417.66,112.272Z" transform="translate(-269.163 -22.642)" fill="#455a64"/>
            <path id="Path_39" data-name="Path 39" d="M413.69,110.027a3.465,3.465,0,0,1,1.31,2.786c0,1.107-.583,1.679-1.31,1.262a3.477,3.477,0,0,1-1.31-2.786C412.38,110.111,412.964,109.551,413.69,110.027Z" transform="translate(-269.92 -23.076)" fill="#455a64"/>
            <path id="Path_40" data-name="Path 40" d="M425.122,228.895l.119-.071,2.453-1.417a2.453,2.453,0,0,0,1.191-1.8,3.147,3.147,0,0,0,0-.333V121.49l-2.977,1.75V227.49a1.536,1.536,0,0,1-.726,1.322h-.071Z" transform="translate(-267.492 -20.857)" fill="#263238" opacity="0.9"/>
          </g>
          <g id="freepik--Code--inject-64" transform="translate(3.775 19.706)">
            <path id="Path_41" data-name="Path 41" d="M332.442,79.459l32.424,18.683a1.762,1.762,0,0,1,.834,1.369c0,.5-.369.691-.834.417L332.442,81.245a1.774,1.774,0,0,1-.822-1.369C331.62,79.376,331.989,79.2,332.442,79.459Z" transform="translate(-289.099 -48.603)" fill="#fff"/>
            <path id="Path_42" data-name="Path 42" d="M342.854,109.5l12.241,7.073a1.762,1.762,0,0,1,.822,1.369c0,.488-.369.679-.822.417l-12.241-7.049a1.739,1.739,0,0,1-.834-1.369C342,109.427,342.389,109.237,342.854,109.5Z" transform="translate(-287.115 -42.873)" fill="#e6e6e6"/>
            <path id="Path_43" data-name="Path 43" d="M342.854,115.509l12.241,7.061a1.8,1.8,0,0,1,.822,1.381c0,.488-.369.679-.822.417l-12.241-7.061a1.762,1.762,0,0,1-.834-1.369C342,115.426,342.389,115.247,342.854,115.509Z" transform="translate(-287.115 -41.727)" fill="#e6e6e6"/>
            <path id="Path_44" data-name="Path 44" d="M362.362,96.7l64.931,37.389a1.8,1.8,0,0,1,.822,1.381c0,.488-.369.679-.822.417L362.362,98.5a1.8,1.8,0,0,1-.822-1.381C361.54,96.627,361.909,96.437,362.362,96.7Z" transform="translate(-283.392 -45.314)" fill="#fff"/>
            <path id="Path_45" data-name="Path 45" d="M343.072,151.629l19.766,11.443a1.739,1.739,0,0,1,.834,1.369c0,.488-.369.679-.834.417l-19.766-11.443a1.762,1.762,0,0,1-.822-1.369C342.25,151.557,342.619,151.367,343.072,151.629Z" transform="translate(-287.071 -34.837)" fill="#fff"/>
            <path id="Path_46" data-name="Path 46" d="M362.362,162.789l64.931,37.437a1.774,1.774,0,0,1,.822,1.369c0,.5-.369.679-.822.417l-64.931-37.437a1.774,1.774,0,0,1-.822-1.369C361.54,162.706,361.909,162.527,362.362,162.789Z" transform="translate(-283.392 -32.709)" fill="#fff"/>
            <path id="Path_47" data-name="Path 47" d="M332.442,85.479l16.3,9.383a1.774,1.774,0,0,1,.822,1.369c0,.5-.369.691-.822.417l-16.3-9.335a1.762,1.762,0,0,1-.822-1.369C331.62,85.407,331.989,85.217,332.442,85.479Z" transform="translate(-289.099 -47.454)" fill="#fff"/>
            <path id="Path_48" data-name="Path 48" d="M332.442,85.479l16.3,9.383a1.774,1.774,0,0,1,.822,1.369c0,.5-.369.691-.822.417l-16.3-9.335a1.762,1.762,0,0,1-.822-1.369C331.62,85.407,331.989,85.217,332.442,85.479Z" transform="translate(-289.099 -47.454)" fill="#fff" opacity="0.6"/>
            <path id="Path_49" data-name="Path 49" d="M332.442,91.479l7.645,4.406a1.774,1.774,0,0,1,.822,1.369c0,.488-.369.679-.822.417l-7.645-4.358a1.774,1.774,0,0,1-.822-1.369C331.62,91.4,331.989,91.217,332.442,91.479Z" transform="translate(-289.099 -46.31)" fill="#fff"/>
            <path id="Path_50" data-name="Path 50" d="M332.442,91.479l7.645,4.406a1.774,1.774,0,0,1,.822,1.369c0,.488-.369.679-.822.417l-7.645-4.358a1.774,1.774,0,0,1-.822-1.369C331.62,91.4,331.989,91.217,332.442,91.479Z" transform="translate(-289.099 -46.31)" fill="#fff" opacity="0.6"/>
            <path id="Path_51" data-name="Path 51" d="M332.442,103.489l7.645,4.406a1.8,1.8,0,0,1,.822,1.381c0,.488-.369.679-.822.417l-7.645-4.406a1.8,1.8,0,0,1-.822-1.381C331.62,103.417,331.989,103.227,332.442,103.489Z" transform="translate(-289.099 -44.019)" fill="#fff"/>
            <path id="Path_52" data-name="Path 52" d="M332.442,103.489l7.645,4.406a1.8,1.8,0,0,1,.822,1.381c0,.488-.369.679-.822.417l-7.645-4.406a1.8,1.8,0,0,1-.822-1.381C331.62,103.417,331.989,103.227,332.442,103.489Z" transform="translate(-289.099 -44.019)" fill="#fff" opacity="0.6"/>
            <path id="Path_53" data-name="Path 53" d="M332.442,109.5l7.645,4.406a1.774,1.774,0,0,1,.822,1.369c0,.5-.369.691-.822.417l-7.645-4.406a1.762,1.762,0,0,1-.822-1.369C331.62,109.427,331.989,109.237,332.442,109.5Z" transform="translate(-289.099 -42.873)" fill="#fff"/>
            <path id="Path_54" data-name="Path 54" d="M332.442,109.5l7.645,4.406a1.774,1.774,0,0,1,.822,1.369c0,.5-.369.691-.822.417l-7.645-4.406a1.762,1.762,0,0,1-.822-1.369C331.62,109.427,331.989,109.237,332.442,109.5Z" transform="translate(-289.099 -42.873)" fill="#fff" opacity="0.6"/>
            <path id="Path_55" data-name="Path 55" d="M348.854,94.909l9.788,5.68a1.762,1.762,0,0,1,.834,1.369c0,.5-.369.679-.834.417l-9.788-5.668a1.786,1.786,0,0,1-.833-1.381C348,94.837,348.389,94.647,348.854,94.909Z" transform="translate(-285.971 -45.656)" fill="#fff"/>
            <path id="Path_56" data-name="Path 56" d="M348.854,94.909l9.788,5.68a1.762,1.762,0,0,1,.834,1.369c0,.5-.369.679-.834.417l-9.788-5.668a1.786,1.786,0,0,1-.833-1.381C348,94.837,348.389,94.647,348.854,94.909Z" transform="translate(-285.971 -45.656)" fill="#fff" opacity="0.6"/>
            <path id="Path_57" data-name="Path 57" d="M361.574,138.349l65.872,37.925a1.762,1.762,0,0,1,.822,1.369c0,.488-.369.679-.822.417l-65.872-37.925a1.762,1.762,0,0,1-.834-1.369C360.74,138.266,361.109,138.087,361.574,138.349Z" transform="translate(-283.544 -37.37)" fill="#fff"/>
            <path id="Path_58" data-name="Path 58" d="M408.662,159.42l9.8,5.668a1.774,1.774,0,0,1,.822,1.369c0,.5-.369.679-.822.417l-9.8-5.668a1.774,1.774,0,0,1-.822-1.369C407.84,159.337,408.209,159.146,408.662,159.42Z" transform="translate(-274.56 -33.352)" fill="#fff"/>
            <path id="Path_59" data-name="Path 59" d="M350.652,126.02l65.872,37.925a1.8,1.8,0,0,1,.822,1.381c0,.488-.369.679-.822.417l-65.872-37.937a1.786,1.786,0,0,1-.822-1.381C349.83,125.937,350.2,125.746,350.652,126.02Z" transform="translate(-285.625 -39.723)" fill="#fff"/>
            <path id="Path_60" data-name="Path 60" d="M342.854,97.49l16.325,9.383a1.738,1.738,0,0,1,.834,1.369c0,.488-.369.679-.834.417l-16.325-9.347a1.762,1.762,0,0,1-.834-1.369C342,97.407,342.389,97.216,342.854,97.49Z" transform="translate(-287.115 -45.165)" fill="#fff"/>
            <path id="Path_61" data-name="Path 61" d="M342.854,97.49l16.325,9.383a1.738,1.738,0,0,1,.834,1.369c0,.488-.369.679-.834.417l-16.325-9.347a1.762,1.762,0,0,1-.834-1.369C342,97.407,342.389,97.216,342.854,97.49Z" transform="translate(-287.115 -45.165)" fill="#fff" opacity="0.6"/>
            <path id="Path_62" data-name="Path 62" d="M359.252,106.919,427.4,146.333a1.8,1.8,0,0,1,.822,1.381c0,.488-.369.679-.822.417l-68.146-39.425a1.774,1.774,0,0,1-.822-1.369C358.43,106.836,358.8,106.657,359.252,106.919Z" transform="translate(-283.985 -43.365)" fill="#fff"/>
            <path id="Path_63" data-name="Path 63" d="M359.252,106.919,427.4,146.333a1.8,1.8,0,0,1,.822,1.381c0,.488-.369.679-.822.417l-68.146-39.425a1.774,1.774,0,0,1-.822-1.369C358.43,106.836,358.8,106.657,359.252,106.919Z" transform="translate(-283.985 -43.365)" fill="#fff" opacity="0.6"/>
            <path id="Path_64" data-name="Path 64" d="M342.857,133.659l88.115,50.833a1.774,1.774,0,0,1,.822,1.369c0,.5-.369.691-.822.429l-88.115-50.845a1.762,1.762,0,0,1-.857-1.357C342,133.576,342.393,133.4,342.857,133.659Z" transform="translate(-287.119 -38.265)" fill="#e6e6e6"/>
            <path id="Path_65" data-name="Path 65" d="M332.442,127.649l7.645,4.406a1.774,1.774,0,0,1,.822,1.369c0,.5-.369.679-.822.417l-7.645-4.406a1.762,1.762,0,0,1-.822-1.369C331.62,127.577,331.989,127.387,332.442,127.649Z" transform="translate(-289.099 -39.411)" fill="#fff"/>
            <path id="Path_66" data-name="Path 66" d="M332.442,127.649l7.645,4.406a1.774,1.774,0,0,1,.822,1.369c0,.5-.369.679-.822.417l-7.645-4.406a1.762,1.762,0,0,1-.822-1.369C331.62,127.577,331.989,127.387,332.442,127.649Z" transform="translate(-289.099 -39.411)" fill="#fff" opacity="0.6"/>
            <path id="Path_67" data-name="Path 67" d="M342.857,139.659,430.972,190.5a1.774,1.774,0,0,1,.822,1.369c0,.5-.369.679-.822.417l-88.115-50.845a1.738,1.738,0,0,1-.857-1.357C342,139.587,342.393,139.4,342.857,139.659Z" transform="translate(-287.119 -37.12)" fill="#e6e6e6"/>
            <path id="Path_68" data-name="Path 68" d="M332.442,133.659l7.645,4.406a1.762,1.762,0,0,1,.822,1.369c0,.488-.369.679-.822.417l-7.645-4.406a1.774,1.774,0,0,1-.822-1.369C331.62,133.576,331.989,133.4,332.442,133.659Z" transform="translate(-289.099 -38.265)" fill="#fff"/>
            <path id="Path_69" data-name="Path 69" d="M332.442,133.659l7.645,4.406a1.762,1.762,0,0,1,.822,1.369c0,.488-.369.679-.822.417l-7.645-4.406a1.774,1.774,0,0,1-.822-1.369C331.62,133.576,331.989,133.4,332.442,133.659Z" transform="translate(-289.099 -38.265)" fill="#fff" opacity="0.6"/>
            <path id="Path_70" data-name="Path 70" d="M342.857,145.669l88.115,50.845a1.762,1.762,0,0,1,.822,1.369c0,.488-.369.679-.822.417l-88.115-50.845a1.762,1.762,0,0,1-.857-1.369C342,145.586,342.393,145.407,342.857,145.669Z" transform="translate(-287.119 -35.974)" fill="#e6e6e6"/>
            <path id="Path_71" data-name="Path 71" d="M332.442,139.659l7.645,4.406a1.774,1.774,0,0,1,.822,1.369c0,.5-.369.691-.822.429l-7.645-4.418a1.762,1.762,0,0,1-.822-1.369C331.62,139.587,331.989,139.4,332.442,139.659Z" transform="translate(-289.099 -37.12)" fill="#fff"/>
            <path id="Path_72" data-name="Path 72" d="M332.442,139.659l7.645,4.406a1.774,1.774,0,0,1,.822,1.369c0,.5-.369.691-.822.429l-7.645-4.418a1.762,1.762,0,0,1-.822-1.369C331.62,139.587,331.989,139.4,332.442,139.659Z" transform="translate(-289.099 -37.12)" fill="#fff" opacity="0.6"/>
            <g id="Group_14" data-name="Group 14" transform="translate(30.614 23.569)" opacity="0.6">
              <path id="Path_73" data-name="Path 73" d="M322.442,73.427l4.489,2.6a1.8,1.8,0,0,1,.81,1.417V79.1c0,.512-.357.726-.81.464l-4.489-2.6a1.786,1.786,0,0,1-.822-1.405V73.9C321.62,73.379,321.989,73.177,322.442,73.427Z" transform="translate(-321.62 -73.32)" fill="#fff"/>
              <path id="Path_74" data-name="Path 74" d="M322.442,79.5l4.489,2.6a1.8,1.8,0,0,1,.81,1.405v1.655c0,.524-.357.726-.81.476l-4.489-2.6a1.81,1.81,0,0,1-.822-1.417V79.962C321.62,79.45,321.989,79.236,322.442,79.5Z" transform="translate(-321.62 -72.164)" fill="#fff"/>
              <path id="Path_75" data-name="Path 75" d="M322.442,85.557l4.489,2.6a1.8,1.8,0,0,1,.81,1.417v1.655c0,.512-.357.726-.81.464l-4.489-2.6a1.81,1.81,0,0,1-.822-1.405V86.033C321.62,85.509,321.989,85.307,322.442,85.557Z" transform="translate(-321.62 -71.007)" fill="#fff"/>
              <path id="Path_76" data-name="Path 76" d="M322.442,91.628l4.489,2.6a1.8,1.8,0,0,1,.81,1.405v1.655c0,.524-.357.726-.81.476l-4.489-2.6a1.81,1.81,0,0,1-.822-1.417V92.092C321.62,91.58,321.989,91.366,322.442,91.628Z" transform="translate(-321.62 -69.85)" fill="#fff"/>
              <path id="Path_77" data-name="Path 77" d="M322.442,97.688l4.489,2.6a1.8,1.8,0,0,1,.81,1.417v1.643c0,.524-.357.738-.81.476l-4.489-2.6a1.81,1.81,0,0,1-.822-1.405V98.164C321.62,97.64,321.989,97.426,322.442,97.688Z" transform="translate(-321.62 -68.694)" fill="#fff"/>
              <path id="Path_78" data-name="Path 78" d="M322.442,103.758l4.489,2.6a1.774,1.774,0,0,1,.81,1.405v1.655c0,.524-.357.726-.81.476l-4.489-2.6a1.81,1.81,0,0,1-.822-1.417v-1.655C321.62,103.71,321.989,103.5,322.442,103.758Z" transform="translate(-321.62 -67.536)" fill="#fff"/>
              <path id="Path_79" data-name="Path 79" d="M322.442,109.818l4.489,2.6a1.8,1.8,0,0,1,.81,1.417v1.643c0,.524-.357.738-.81.476l-4.489-2.6a1.81,1.81,0,0,1-.822-1.405v-1.655C321.62,109.77,321.989,109.556,322.442,109.818Z" transform="translate(-321.62 -66.38)" fill="#fff"/>
              <path id="Path_80" data-name="Path 80" d="M322.442,115.888l4.489,2.6a1.774,1.774,0,0,1,.81,1.405v1.655c0,.524-.357.726-.81.464l-4.489-2.584a1.81,1.81,0,0,1-.822-1.417v-1.655C321.62,115.84,321.989,115.626,322.442,115.888Z" transform="translate(-321.62 -65.222)" fill="#fff"/>
              <path id="Path_81" data-name="Path 81" d="M322.442,121.948l4.489,2.6a1.8,1.8,0,0,1,.81,1.417V127.6c0,.524-.357.738-.81.476l-4.489-2.6a1.81,1.81,0,0,1-.822-1.417v-1.643C321.62,121.9,321.989,121.686,322.442,121.948Z" transform="translate(-321.62 -64.067)" fill="#fff"/>
              <path id="Path_82" data-name="Path 82" d="M322.442,128.017l4.489,2.6a1.762,1.762,0,0,1,.81,1.405v1.655c0,.524-.357.726-.81.464l-4.489-2.548a1.81,1.81,0,0,1-.822-1.417v-1.655C321.62,128.017,321.989,127.755,322.442,128.017Z" transform="translate(-321.62 -62.907)" fill="#fff"/>
              <path id="Path_83" data-name="Path 83" d="M322.442,134.079l4.489,2.6a1.8,1.8,0,0,1,.81,1.417v1.643c0,.524-.357.738-.81.476l-4.489-2.632a1.81,1.81,0,0,1-.822-1.417v-1.643C321.62,134.007,321.989,133.817,322.442,134.079Z" transform="translate(-321.62 -61.754)" fill="#fff"/>
              <path id="Path_84" data-name="Path 84" d="M322.442,140.148l4.489,2.584a1.8,1.8,0,0,1,.81,1.417V145.8c0,.524-.357.726-.81.464l-4.489-2.584a1.81,1.81,0,0,1-.822-1.417v-1.655C321.62,140.1,321.989,139.886,322.442,140.148Z" transform="translate(-321.62 -60.595)" fill="#fff"/>
            </g>
            <path id="Path_85" data-name="Path 85" d="M297.541,53.745l24.291,14.027a3.572,3.572,0,0,1,1.631,2.822V98.648c0,1.036-.726,1.465-1.631.941L297.541,85.562a3.572,3.572,0,0,1-1.631-2.822V54.7C295.91,53.65,296.636,53.233,297.541,53.745Z" transform="translate(-295.91 -53.527)" fill="#37474f"/>
            <path id="Path_86" data-name="Path 86" d="M299.3,77.079l2.239,1.3a1.8,1.8,0,0,1,.834,1.369c0,.5-.381.679-.834.417l-2.239-1.3a1.762,1.762,0,0,1-.822-1.369C298.48,77.007,298.849,76.817,299.3,77.079Z" transform="translate(-295.42 -49.057)" fill="#fff"/>
            <path id="Path_87" data-name="Path 87" d="M299.3,77.079l2.239,1.3a1.8,1.8,0,0,1,.834,1.369c0,.5-.381.679-.834.417l-2.239-1.3a1.762,1.762,0,0,1-.822-1.369C298.48,77.007,298.849,76.817,299.3,77.079Z" transform="translate(-295.42 -49.057)" fill="#fff" opacity="0.6"/>
            <path id="Path_88" data-name="Path 88" d="M299.3,57.789l2.239,1.3a1.8,1.8,0,0,1,.834,1.369c0,.5-.381.679-.834.417L299.3,59.587a1.8,1.8,0,0,1-.822-1.381C298.48,57.717,298.849,57.527,299.3,57.789Z" transform="translate(-295.42 -52.736)" fill="#fff"/>
            <path id="Path_89" data-name="Path 89" d="M299.3,57.789l2.239,1.3a1.8,1.8,0,0,1,.834,1.369c0,.5-.381.679-.834.417L299.3,59.587a1.8,1.8,0,0,1-.822-1.381C298.48,57.717,298.849,57.527,299.3,57.789Z" transform="translate(-295.42 -52.736)" fill="#fff" opacity="0.6"/>
            <path id="Path_90" data-name="Path 90" d="M301.942,63.169l2.239,1.286A1.774,1.774,0,0,1,305,65.825c0,.5-.369.691-.822.417l-2.239-1.286a1.774,1.774,0,0,1-.822-1.369C301.12,63.086,301.489,62.907,301.942,63.169Z" transform="translate(-294.916 -51.71)" fill="#fff"/>
            <path id="Path_91" data-name="Path 91" d="M301.942,63.169l2.239,1.286A1.774,1.774,0,0,1,305,65.825c0,.5-.369.691-.822.417l-2.239-1.286a1.774,1.774,0,0,1-.822-1.369C301.12,63.086,301.489,62.907,301.942,63.169Z" transform="translate(-294.916 -51.71)" fill="#fff" opacity="0.6"/>
            <path id="Path_92" data-name="Path 92" d="M301.942,67.02l2.239,1.3A1.774,1.774,0,0,1,305,69.687c0,.5-.369.679-.822.417l-2.239-1.286a1.774,1.774,0,0,1-.822-1.369C301.12,66.937,301.489,66.746,301.942,67.02Z" transform="translate(-294.916 -50.977)" fill="#fff"/>
            <path id="Path_93" data-name="Path 93" d="M301.942,67.02l2.239,1.3A1.774,1.774,0,0,1,305,69.687c0,.5-.369.679-.822.417l-2.239-1.286a1.774,1.774,0,0,1-.822-1.369C301.12,66.937,301.489,66.746,301.942,67.02Z" transform="translate(-294.916 -50.977)" fill="#fff" opacity="0.6"/>
            <path id="Path_94" data-name="Path 94" d="M299.3,69.359l2.239,1.3a1.8,1.8,0,0,1,.834,1.369c0,.5-.381.679-.834.417L299.3,71.157a1.786,1.786,0,0,1-.822-1.381C298.48,69.287,298.849,69.1,299.3,69.359Z" transform="translate(-295.42 -50.529)" fill="#fff"/>
            <path id="Path_95" data-name="Path 95" d="M299.3,69.359l2.239,1.3a1.8,1.8,0,0,1,.834,1.369c0,.5-.381.679-.834.417L299.3,71.157a1.786,1.786,0,0,1-.822-1.381C298.48,69.287,298.849,69.1,299.3,69.359Z" transform="translate(-295.42 -50.529)" fill="#fff" opacity="0.6"/>
            <path id="Path_96" data-name="Path 96" d="M301.942,74.739l2.239,1.3A1.762,1.762,0,0,1,305,77.406c0,.488-.369.679-.822.417l-2.239-1.3a1.762,1.762,0,0,1-.822-1.369C301.12,74.667,301.489,74.477,301.942,74.739Z" transform="translate(-294.916 -49.503)" fill="#fff"/>
            <path id="Path_97" data-name="Path 97" d="M301.942,74.739l2.239,1.3A1.762,1.762,0,0,1,305,77.406c0,.488-.369.679-.822.417l-2.239-1.3a1.762,1.762,0,0,1-.822-1.369C301.12,74.667,301.489,74.477,301.942,74.739Z" transform="translate(-294.916 -49.503)" fill="#fff" opacity="0.6"/>
            <path id="Path_98" data-name="Path 98" d="M304.454,60.759,318.1,68.653a1.738,1.738,0,0,1,.834,1.369c0,.488-.369.679-.834.417l-13.646-7.883a1.762,1.762,0,0,1-.834-1.381C303.62,60.687,303.989,60.5,304.454,60.759Z" transform="translate(-294.439 -52.17)" fill="#fff"/>
            <path id="Path_99" data-name="Path 99" d="M304.454,60.759,318.1,68.653a1.738,1.738,0,0,1,.834,1.369c0,.488-.369.679-.834.417l-13.646-7.883a1.762,1.762,0,0,1-.834-1.381C303.62,60.687,303.989,60.5,304.454,60.759Z" transform="translate(-294.439 -52.17)" fill="#fff" opacity="0.8"/>
            <path id="Path_100" data-name="Path 100" d="M304.454,80.014,318.1,87.909a1.738,1.738,0,0,1,.834,1.369c0,.488-.369.679-.834.417l-13.646-7.883a1.786,1.786,0,0,1-.834-1.381C303.62,80.014,303.989,79.788,304.454,80.014Z" transform="translate(-294.439 -48.491)" fill="#fff"/>
            <path id="Path_101" data-name="Path 101" d="M304.454,80.014,318.1,87.909a1.738,1.738,0,0,1,.834,1.369c0,.488-.369.679-.834.417l-13.646-7.883a1.786,1.786,0,0,1-.834-1.381C303.62,80.014,303.989,79.788,304.454,80.014Z" transform="translate(-294.439 -48.491)" fill="#fff" opacity="0.8"/>
            <path id="Path_102" data-name="Path 102" d="M307.134,66.139l10.5,6.073a1.762,1.762,0,0,1,.834,1.381c0,.488-.369.679-.834.417l-10.5-6.085a1.762,1.762,0,0,1-.834-1.369C306.253,66.056,306.622,65.877,307.134,66.139Z" transform="translate(-293.929 -51.144)" fill="#fff"/>
            <path id="Path_103" data-name="Path 103" d="M307.134,66.139l10.5,6.073a1.762,1.762,0,0,1,.834,1.381c0,.488-.369.679-.834.417l-10.5-6.085a1.762,1.762,0,0,1-.834-1.369C306.253,66.056,306.622,65.877,307.134,66.139Z" transform="translate(-293.929 -51.144)" fill="#fff" opacity="0.8"/>
            <path id="Path_104" data-name="Path 104" d="M307.134,70.023l10.5,6.085a1.762,1.762,0,0,1,.834,1.369c0,.5-.369.679-.834.417l-10.5-6.108a1.762,1.762,0,0,1-.834-1.369C306.253,69.916,306.622,69.725,307.134,70.023Z" transform="translate(-293.929 -50.407)" fill="#fff"/>
            <path id="Path_105" data-name="Path 105" d="M307.134,70.023l10.5,6.085a1.762,1.762,0,0,1,.834,1.369c0,.5-.369.679-.834.417l-10.5-6.108a1.762,1.762,0,0,1-.834-1.369C306.253,69.916,306.622,69.725,307.134,70.023Z" transform="translate(-293.929 -50.407)" fill="#fff" opacity="0.8"/>
            <path id="Path_106" data-name="Path 106" d="M304.454,72.339,318.1,80.222a1.762,1.762,0,0,1,.834,1.369c0,.5-.369.679-.834.417l-13.646-7.883a1.762,1.762,0,0,1-.834-1.369C303.62,72.256,303.989,72.077,304.454,72.339Z" transform="translate(-294.439 -49.961)" fill="#fff"/>
            <path id="Path_107" data-name="Path 107" d="M304.454,72.339,318.1,80.222a1.762,1.762,0,0,1,.834,1.369c0,.5-.369.679-.834.417l-13.646-7.883a1.762,1.762,0,0,1-.834-1.369C303.62,72.256,303.989,72.077,304.454,72.339Z" transform="translate(-294.439 -49.961)" fill="#fff" opacity="0.8"/>
            <path id="Path_108" data-name="Path 108" d="M307.134,77.709l10.5,6.085a1.738,1.738,0,0,1,.834,1.369c0,.488-.369.679-.834.417l-10.5-6.085a1.738,1.738,0,0,1-.834-1.369C306.253,77.637,306.622,77.447,307.134,77.709Z" transform="translate(-293.929 -48.937)" fill="#fff"/>
            <path id="Path_109" data-name="Path 109" d="M307.134,77.709l10.5,6.085a1.738,1.738,0,0,1,.834,1.369c0,.488-.369.679-.834.417l-10.5-6.085a1.738,1.738,0,0,1-.834-1.369C306.253,77.637,306.622,77.447,307.134,77.709Z" transform="translate(-293.929 -48.937)" fill="#fff" opacity="0.8"/>
            <path id="Path_110" data-name="Path 110" d="M297.541,84.906l24.291,14.015a3.572,3.572,0,0,1,1.631,2.81v55.417c0,1.048-.726,1.465-1.631.941l-24.291-14.027a3.572,3.572,0,0,1-1.631-2.822V85.847C295.91,84.8,296.636,84.382,297.541,84.906Z" transform="translate(-295.91 -47.584)" fill="#37474f"/>
            <path id="Path_111" data-name="Path 111" d="M299.3,88.939l2.239,1.286a1.8,1.8,0,0,1,.834,1.369c0,.5-.381.679-.834.417L299.3,90.725a1.774,1.774,0,0,1-.822-1.369C298.48,88.867,298.849,88.677,299.3,88.939Z" transform="translate(-295.42 -46.794)" fill="#fff"/>
            <path id="Path_112" data-name="Path 112" d="M299.3,88.939l2.239,1.286a1.8,1.8,0,0,1,.834,1.369c0,.5-.381.679-.834.417L299.3,90.725a1.774,1.774,0,0,1-.822-1.369C298.48,88.867,298.849,88.677,299.3,88.939Z" transform="translate(-295.42 -46.794)" fill="#fff" opacity="0.6"/>
            <path id="Path_113" data-name="Path 113" d="M301.942,94.319l2.239,1.286A1.786,1.786,0,0,1,305,96.987c0,.488-.369.679-.822.417l-2.239-1.3a1.774,1.774,0,0,1-.822-1.369C301.12,94.236,301.489,94.057,301.942,94.319Z" transform="translate(-294.916 -45.769)" fill="#fff"/>
            <path id="Path_114" data-name="Path 114" d="M301.942,94.319l2.239,1.286A1.786,1.786,0,0,1,305,96.987c0,.488-.369.679-.822.417l-2.239-1.3a1.774,1.774,0,0,1-.822-1.369C301.12,94.236,301.489,94.057,301.942,94.319Z" transform="translate(-294.916 -45.769)" fill="#fff" opacity="0.6"/>
            <path id="Path_115" data-name="Path 115" d="M301.942,98.17l2.239,1.286a1.774,1.774,0,0,1,.822,1.369c0,.5-.369.679-.822.417l-2.239-1.286a1.774,1.774,0,0,1-.822-1.369C301.12,98.087,301.489,97.9,301.942,98.17Z" transform="translate(-294.916 -45.035)" fill="#fff"/>
            <path id="Path_116" data-name="Path 116" d="M301.942,98.17l2.239,1.286a1.774,1.774,0,0,1,.822,1.369c0,.5-.369.679-.822.417l-2.239-1.286a1.774,1.774,0,0,1-.822-1.369C301.12,98.087,301.489,97.9,301.942,98.17Z" transform="translate(-294.916 -45.035)" fill="#fff" opacity="0.6"/>
            <path id="Path_117" data-name="Path 117" d="M299.3,100.52l2.239,1.286a1.8,1.8,0,0,1,.834,1.369c0,.5-.381.679-.834.417l-2.239-1.286a1.774,1.774,0,0,1-.822-1.369C298.48,100.437,298.849,100.246,299.3,100.52Z" transform="translate(-295.42 -44.587)" fill="#fff"/>
            <path id="Path_118" data-name="Path 118" d="M299.3,100.52l2.239,1.286a1.8,1.8,0,0,1,.834,1.369c0,.5-.381.679-.834.417l-2.239-1.286a1.774,1.774,0,0,1-.822-1.369C298.48,100.437,298.849,100.246,299.3,100.52Z" transform="translate(-295.42 -44.587)" fill="#fff" opacity="0.6"/>
            <path id="Path_119" data-name="Path 119" d="M304.454,91.92,318.1,99.8a1.738,1.738,0,0,1,.834,1.369c0,.488-.369.679-.834.417l-13.646-7.883a1.762,1.762,0,0,1-.834-1.369C303.62,91.837,303.989,91.646,304.454,91.92Z" transform="translate(-294.439 -46.227)" fill="#fff"/>
            <path id="Path_120" data-name="Path 120" d="M304.454,91.92,318.1,99.8a1.738,1.738,0,0,1,.834,1.369c0,.488-.369.679-.834.417l-13.646-7.883a1.762,1.762,0,0,1-.834-1.369C303.62,91.837,303.989,91.646,304.454,91.92Z" transform="translate(-294.439 -46.227)" fill="#fff" opacity="0.8"/>
            <path id="Path_121" data-name="Path 121" d="M307.134,97.289l10.5,6.085a1.738,1.738,0,0,1,.834,1.369c0,.488-.369.679-.834.417l-10.5-6.085a1.762,1.762,0,0,1-.834-1.369C306.253,97.206,306.622,97.027,307.134,97.289Z" transform="translate(-293.929 -45.202)" fill="#fff"/>
            <path id="Path_122" data-name="Path 122" d="M307.134,97.289l10.5,6.085a1.738,1.738,0,0,1,.834,1.369c0,.488-.369.679-.834.417l-10.5-6.085a1.762,1.762,0,0,1-.834-1.369C306.253,97.206,306.622,97.027,307.134,97.289Z" transform="translate(-293.929 -45.202)" fill="#fff" opacity="0.8"/>
            <path id="Path_123" data-name="Path 123" d="M307.134,101.15l10.5,6.073a1.762,1.762,0,0,1,.834,1.369c0,.5-.369.691-.834.429l-10.5-6.085a1.762,1.762,0,0,1-.834-1.369C306.253,101.067,306.622,100.876,307.134,101.15Z" transform="translate(-293.929 -44.467)" fill="#fff"/>
            <path id="Path_124" data-name="Path 124" d="M307.134,101.15l10.5,6.073a1.762,1.762,0,0,1,.834,1.369c0,.5-.369.691-.834.429l-10.5-6.085a1.762,1.762,0,0,1-.834-1.369C306.253,101.067,306.622,100.876,307.134,101.15Z" transform="translate(-293.929 -44.467)" fill="#fff" opacity="0.8"/>
            <path id="Path_125" data-name="Path 125" d="M304.454,103.489l13.646,7.883a1.762,1.762,0,0,1,.834,1.369c0,.5-.369.679-.834.417l-13.646-7.847a1.762,1.762,0,0,1-.834-1.369C303.62,103.406,303.989,103.227,304.454,103.489Z" transform="translate(-294.439 -44.019)" fill="#fff"/>
            <path id="Path_126" data-name="Path 126" d="M304.454,103.489l13.646,7.883a1.762,1.762,0,0,1,.834,1.369c0,.5-.369.679-.834.417l-13.646-7.847a1.762,1.762,0,0,1-.834-1.369C303.62,103.406,303.989,103.227,304.454,103.489Z" transform="translate(-294.439 -44.019)" fill="#fff" opacity="0.8"/>
            <path id="Path_127" data-name="Path 127" d="M301.942,105.909l2.239,1.3a1.774,1.774,0,0,1,.822,1.369c0,.5-.369.679-.822.417l-2.239-1.286a1.774,1.774,0,0,1-.822-1.369C301.12,105.837,301.489,105.647,301.942,105.909Z" transform="translate(-294.916 -43.558)" fill="#fff"/>
            <path id="Path_128" data-name="Path 128" d="M301.942,105.909l2.239,1.3a1.774,1.774,0,0,1,.822,1.369c0,.5-.369.679-.822.417l-2.239-1.286a1.774,1.774,0,0,1-.822-1.369C301.12,105.837,301.489,105.647,301.942,105.909Z" transform="translate(-294.916 -43.558)" fill="#fff" opacity="0.6"/>
            <path id="Path_129" data-name="Path 129" d="M301.942,109.759l2.239,1.3a1.774,1.774,0,0,1,.822,1.369c0,.488-.369.679-.822.417l-2.239-1.3a1.762,1.762,0,0,1-.822-1.369C301.12,109.687,301.489,109.5,301.942,109.759Z" transform="translate(-294.916 -42.823)" fill="#fff"/>
            <path id="Path_130" data-name="Path 130" d="M301.942,109.759l2.239,1.3a1.774,1.774,0,0,1,.822,1.369c0,.488-.369.679-.822.417l-2.239-1.3a1.762,1.762,0,0,1-.822-1.369C301.12,109.687,301.489,109.5,301.942,109.759Z" transform="translate(-294.916 -42.823)" fill="#fff" opacity="0.6"/>
            <path id="Path_131" data-name="Path 131" d="M307.134,108.879l10.5,6.085a1.762,1.762,0,0,1,.834,1.369c0,.5-.369.691-.834.417l-10.5-6.073a1.762,1.762,0,0,1-.834-1.369C306.253,108.807,306.622,108.617,307.134,108.879Z" transform="translate(-293.929 -42.991)" fill="#fff"/>
            <path id="Path_132" data-name="Path 132" d="M307.134,108.879l10.5,6.085a1.762,1.762,0,0,1,.834,1.369c0,.5-.369.691-.834.417l-10.5-6.073a1.762,1.762,0,0,1-.834-1.369C306.253,108.807,306.622,108.617,307.134,108.879Z" transform="translate(-293.929 -42.991)" fill="#fff" opacity="0.8"/>
            <path id="Path_133" data-name="Path 133" d="M307.134,112.739l10.5,6.085a1.762,1.762,0,0,1,.834,1.369c0,.5-.369.679-.834.417l-10.5-6.085a1.738,1.738,0,0,1-.834-1.369C306.253,112.667,306.622,112.477,307.134,112.739Z" transform="translate(-293.929 -42.255)" fill="#fff"/>
            <path id="Path_134" data-name="Path 134" d="M307.134,112.739l10.5,6.085a1.762,1.762,0,0,1,.834,1.369c0,.5-.369.679-.834.417l-10.5-6.085a1.738,1.738,0,0,1-.834-1.369C306.253,112.667,306.622,112.477,307.134,112.739Z" transform="translate(-293.929 -42.255)" fill="#fff" opacity="0.8"/>
            <path id="Path_135" data-name="Path 135" d="M299.3,119.849l2.239,1.3a1.774,1.774,0,0,1,.834,1.369c0,.488-.381.679-.834.417l-2.239-1.3a1.762,1.762,0,0,1-.822-1.369C298.48,119.777,298.849,119.587,299.3,119.849Z" transform="translate(-295.42 -40.899)" fill="#fff"/>
            <path id="Path_136" data-name="Path 136" d="M299.3,119.849l2.239,1.3a1.774,1.774,0,0,1,.834,1.369c0,.488-.381.679-.834.417l-2.239-1.3a1.762,1.762,0,0,1-.822-1.369C298.48,119.777,298.849,119.587,299.3,119.849Z" transform="translate(-295.42 -40.899)" fill="#fff" opacity="0.6"/>
            <path id="Path_137" data-name="Path 137" d="M304.454,122.819l13.646,7.895a1.738,1.738,0,0,1,.834,1.369c0,.488-.369.679-.834.417l-13.646-7.883a1.762,1.762,0,0,1-.834-1.369C303.62,122.747,303.989,122.557,304.454,122.819Z" transform="translate(-294.439 -40.332)" fill="#fff"/>
            <path id="Path_138" data-name="Path 138" d="M304.454,122.819l13.646,7.895a1.738,1.738,0,0,1,.834,1.369c0,.488-.369.679-.834.417l-13.646-7.883a1.762,1.762,0,0,1-.834-1.369C303.62,122.747,303.989,122.557,304.454,122.819Z" transform="translate(-294.439 -40.332)" fill="#fff" opacity="0.8"/>
            <path id="Path_139" data-name="Path 139" d="M301.942,125.25l2.239,1.3a1.762,1.762,0,0,1,.822,1.369c0,.488-.369.679-.822.417l-2.239-1.3a1.762,1.762,0,0,1-.822-1.369C301.12,125.178,301.489,124.976,301.942,125.25Z" transform="translate(-294.916 -39.87)" fill="#fff"/>
            <path id="Path_140" data-name="Path 140" d="M301.942,125.25l2.239,1.3a1.762,1.762,0,0,1,.822,1.369c0,.488-.369.679-.822.417l-2.239-1.3a1.762,1.762,0,0,1-.822-1.369C301.12,125.178,301.489,124.976,301.942,125.25Z" transform="translate(-294.916 -39.87)" fill="#fff" opacity="0.6"/>
            <path id="Path_141" data-name="Path 141" d="M301.942,129.1l2.239,1.286a1.8,1.8,0,0,1,.822,1.381c0,.488-.369.679-.822.417l-2.239-1.3a1.774,1.774,0,0,1-.822-1.369C301.12,129,301.489,128.838,301.942,129.1Z" transform="translate(-294.916 -39.135)" fill="#fff"/>
            <path id="Path_142" data-name="Path 142" d="M301.942,129.1l2.239,1.286a1.8,1.8,0,0,1,.822,1.381c0,.488-.369.679-.822.417l-2.239-1.3a1.774,1.774,0,0,1-.822-1.369C301.12,129,301.489,128.838,301.942,129.1Z" transform="translate(-294.916 -39.135)" fill="#fff" opacity="0.6"/>
            <path id="Path_143" data-name="Path 143" d="M307.134,128.217l10.5,6.085a1.738,1.738,0,0,1,.834,1.369c0,.488-.369.679-.834.417L307.134,130a1.738,1.738,0,0,1-.834-1.369C306.253,128.146,306.622,127.979,307.134,128.217Z" transform="translate(-293.929 -39.3)" fill="#fff"/>
            <path id="Path_144" data-name="Path 144" d="M307.134,128.217l10.5,6.085a1.738,1.738,0,0,1,.834,1.369c0,.488-.369.679-.834.417L307.134,130a1.738,1.738,0,0,1-.834-1.369C306.253,128.146,306.622,127.979,307.134,128.217Z" transform="translate(-293.929 -39.3)" fill="#fff" opacity="0.8"/>
            <path id="Path_145" data-name="Path 145" d="M307.134,132.079l10.5,6.085a1.738,1.738,0,0,1,.834,1.369c0,.488-.369.679-.834.417l-10.5-6.085a1.762,1.762,0,0,1-.834-1.369C306.253,132.007,306.622,131.817,307.134,132.079Z" transform="translate(-293.929 -38.566)" fill="#fff"/>
            <path id="Path_146" data-name="Path 146" d="M307.134,132.079l10.5,6.085a1.738,1.738,0,0,1,.834,1.369c0,.488-.369.679-.834.417l-10.5-6.085a1.762,1.762,0,0,1-.834-1.369C306.253,132.007,306.622,131.817,307.134,132.079Z" transform="translate(-293.929 -38.566)" fill="#fff" opacity="0.8"/>
            <path id="Path_147" data-name="Path 147" d="M301.942,113.589l2.239,1.3a1.762,1.762,0,0,1,.822,1.369c0,.488-.369.679-.822.417l-2.239-1.3a1.762,1.762,0,0,1-.822-1.369C301.12,113.517,301.489,113.327,301.942,113.589Z" transform="translate(-294.916 -42.093)" fill="#fff"/>
            <path id="Path_148" data-name="Path 148" d="M301.942,113.589l2.239,1.3a1.762,1.762,0,0,1,.822,1.369c0,.488-.369.679-.822.417l-2.239-1.3a1.762,1.762,0,0,1-.822-1.369C301.12,113.517,301.489,113.327,301.942,113.589Z" transform="translate(-294.916 -42.093)" fill="#fff" opacity="0.6"/>
            <path id="Path_149" data-name="Path 149" d="M299.3,115.939l2.239,1.3a1.774,1.774,0,0,1,.834,1.369c0,.488-.381.679-.834.417l-2.239-1.3a1.762,1.762,0,0,1-.822-1.369C298.48,115.867,298.849,115.677,299.3,115.939Z" transform="translate(-295.42 -41.644)" fill="#fff"/>
            <path id="Path_150" data-name="Path 150" d="M299.3,115.939l2.239,1.3a1.774,1.774,0,0,1,.834,1.369c0,.488-.381.679-.834.417l-2.239-1.3a1.762,1.762,0,0,1-.822-1.369C298.48,115.867,298.849,115.677,299.3,115.939Z" transform="translate(-295.42 -41.644)" fill="#fff" opacity="0.6"/>
            <path id="Path_151" data-name="Path 151" d="M307.134,116.569l10.5,6.085a1.739,1.739,0,0,1,.834,1.369c0,.488-.369.679-.834.417l-10.5-6.085a1.738,1.738,0,0,1-.834-1.369C306.253,116.5,306.622,116.307,307.134,116.569Z" transform="translate(-293.929 -41.524)" fill="#fff"/>
            <path id="Path_152" data-name="Path 152" d="M307.134,116.569l10.5,6.085a1.739,1.739,0,0,1,.834,1.369c0,.488-.369.679-.834.417l-10.5-6.085a1.738,1.738,0,0,1-.834-1.369C306.253,116.5,306.622,116.307,307.134,116.569Z" transform="translate(-293.929 -41.524)" fill="#fff" opacity="0.8"/>
            <path id="Path_153" data-name="Path 153" d="M304.454,118.909,318.1,126.8a1.738,1.738,0,0,1,.834,1.369c0,.488-.369.679-.834.417l-13.646-7.883a1.786,1.786,0,0,1-.834-1.381C303.62,118.837,303.989,118.647,304.454,118.909Z" transform="translate(-294.439 -41.078)" fill="#fff"/>
            <path id="Path_154" data-name="Path 154" d="M304.454,118.909,318.1,126.8a1.738,1.738,0,0,1,.834,1.369c0,.488-.369.679-.834.417l-13.646-7.883a1.786,1.786,0,0,1-.834-1.381C303.62,118.837,303.989,118.647,304.454,118.909Z" transform="translate(-294.439 -41.078)" fill="#fff" opacity="0.8"/>
            <path id="Path_155" data-name="Path 155" d="M299.3,131.5l2.239,1.3a1.774,1.774,0,0,1,.834,1.369c0,.488-.381.679-.834.417l-2.239-1.274a1.762,1.762,0,0,1-.822-1.369C298.48,131.427,298.849,131.237,299.3,131.5Z" transform="translate(-295.42 -38.676)" fill="#fff"/>
            <path id="Path_156" data-name="Path 156" d="M299.3,131.5l2.239,1.3a1.774,1.774,0,0,1,.834,1.369c0,.488-.381.679-.834.417l-2.239-1.274a1.762,1.762,0,0,1-.822-1.369C298.48,131.427,298.849,131.237,299.3,131.5Z" transform="translate(-295.42 -38.676)" fill="#fff" opacity="0.6"/>
            <path id="Path_157" data-name="Path 157" d="M304.454,134.48l13.646,7.883a1.738,1.738,0,0,1,.834,1.369c0,.488-.369.679-.834.417l-13.646-7.835a1.762,1.762,0,0,1-.834-1.369C303.62,134.4,303.989,134.206,304.454,134.48Z" transform="translate(-294.439 -38.109)" fill="#fff"/>
            <path id="Path_158" data-name="Path 158" d="M304.454,134.48l13.646,7.883a1.738,1.738,0,0,1,.834,1.369c0,.488-.369.679-.834.417l-13.646-7.835a1.762,1.762,0,0,1-.834-1.369C303.62,134.4,303.989,134.206,304.454,134.48Z" transform="translate(-294.439 -38.109)" fill="#fff" opacity="0.8"/>
          </g>
        </g>
        <g id="freepik--window--inject-64-3" data-name="freepik--window--inject-64" transform="translate(303.615 131.943)">
          <g id="Group_15" data-name="Group 15" transform="translate(0 1.778)" opacity="0.8">
            <path id="Path_159" data-name="Path 159" d="M410.78,150.483v90.949a4.179,4.179,0,0,0,1.893,3.275l52.25,30.15a1.31,1.31,0,0,0,.631.179h.5l.107-.071.107-.1a1.453,1.453,0,0,0,.345-.5,2.238,2.238,0,0,0,.2-.953v-90.5a4.167,4.167,0,0,0-1.893-3.275l-52.25-30.114a1.381,1.381,0,0,0-1.274-.167l-.155.1h0l-.131.119a.249.249,0,0,0,0,.071.309.309,0,0,0-.059.107.643.643,0,0,0-.119.238.689.689,0,0,0,0,.167h0v.179C410.792,150.328,410.78,150.412,410.78,150.483Z" transform="translate(-410.78 -149.278)" fill="#455a64"/>
          </g>
          <path id="Path_160" data-name="Path 160" d="M411.3,149.518a1.381,1.381,0,0,1,1.274.167l52.25,30.114a4.168,4.168,0,0,1,1.893,3.275v6.168l3.013-1.738v-6.12a4.144,4.144,0,0,0-1.893-3.263l-52.25-30.078a1.322,1.322,0,0,0-1.369-.119C413.872,148.041,411.7,149.315,411.3,149.518Z" transform="translate(-410.681 -147.785)" fill="#fff"/>
          <path id="Path_161" data-name="Path 161" d="M410.79,150.493c0-1.191.845-1.667,1.881-1.072l52.25,30.114a4.18,4.18,0,0,1,1.893,3.275v6.168L410.85,156.7Z" transform="translate(-410.778 -147.521)" fill="#fff"/>
          <g id="Group_16" data-name="Group 16" transform="translate(0.631)" opacity="0.5">
            <path id="Path_162" data-name="Path 162" d="M412.572,149.684l52.25,30.114a3.894,3.894,0,0,1,1.334,1.405l3-1.727a3.846,3.846,0,0,0-1.322-1.369l-52.25-30.066a1.322,1.322,0,0,0-1.369-.119c-.333.214-2.512,1.429-2.905,1.643a1.322,1.322,0,0,1,1.262.119Z" transform="translate(-411.31 -147.785)" fill="#fff"/>
          </g>
          <path id="Path_163" data-name="Path 163" d="M460.944,182.436V176.3a4,4,0,0,0-.572-1.893l-3.013,1.715a3.763,3.763,0,0,1,.572,1.881v6.168Z" transform="translate(-401.895 -142.706)" opacity="0.15"/>
          <path id="Path_164" data-name="Path 164" d="M455.7,176.818a2.822,2.822,0,0,1,1.072,2.262c0,.9-.476,1.369-1.072,1.024a2.81,2.81,0,0,1-1.072-2.251C454.63,176.937,455.071,176.484,455.7,176.818Z" transform="translate(-402.416 -142.268)" fill="#455a64"/>
          <path id="Path_165" data-name="Path 165" d="M452.47,174.959a2.774,2.774,0,0,1,1.072,2.251c0,.917-.476,1.369-1.072,1.036a2.846,2.846,0,0,1-1.06-2.262C451.41,175.031,451.886,174.614,452.47,174.959Z" transform="translate(-403.03 -142.624)" fill="#455a64"/>
          <path id="Path_166" data-name="Path 166" d="M449.246,173.087a2.846,2.846,0,0,1,1.1,2.3c0,.9-.476,1.369-1.06,1.024a2.8,2.8,0,0,1-1.072-2.262C448.175,173.207,448.651,172.754,449.246,173.087Z" transform="translate(-403.641 -142.979)" fill="#455a64"/>
          <g id="Group_17" data-name="Group 17" transform="translate(55.346 39.718)" opacity="0.9">
            <path id="Path_167" data-name="Path 167" d="M457.26,268.779l.226-.131.583-.333h0a2.069,2.069,0,0,1,.31-.179h0l.5-.286,1.012-.572.238-.131a1.071,1.071,0,0,0,.322-.25,1.311,1.311,0,0,0,.25-.393,2.251,2.251,0,0,0,.226-1V181.14l-3.013,1.738v84.316a2.752,2.752,0,0,1-.2.953,1.454,1.454,0,0,1-.345.5.285.285,0,0,1-.107.1Z" transform="translate(-457.26 -181.14)" fill="#37474f"/>
          </g>
          <path id="Path_168" data-name="Path 168" d="M414.43,164.479a.3.3,0,0,1,.1-.238l1.357-1.191h.06a.2.2,0,0,1,.107.131.345.345,0,0,1,0,.191v.941a1.3,1.3,0,0,1,0,.262.986.986,0,0,1-.1.143l-.726.655.726,1.488c0,.1.071.179.1.262a1.709,1.709,0,0,1,0,.286v1.084a.083.083,0,0,1-.107,0h0l-.06-.083-1.357-2.822a.8.8,0,0,1-.1-.345Z" transform="translate(-410.084 -144.873)" fill="#fff"/>
          <path id="Path_169" data-name="Path 169" d="M418.98,163.175a.358.358,0,0,1,.107-.155h.2l.5.3a.2.2,0,0,1,.107.131.345.345,0,0,1,0,.191.239.239,0,0,1,0,.083l-2.381,7.24a.309.309,0,0,1-.1.155h-.2l-.488-.286a.238.238,0,0,1-.107-.131.381.381,0,0,1,0-.191v-.083Z" transform="translate(-409.668 -144.879)" fill="#fff"/>
          <path id="Path_170" data-name="Path 170" d="M421.894,169.641a.31.31,0,0,1-.1.25l-1.357,1.191a.083.083,0,0,1-.071,0h0a.238.238,0,0,1-.107-.131.381.381,0,0,1,0-.191v-.941a1.193,1.193,0,0,1,0-.262.417.417,0,0,1,.1-.155l.714-.655-.714-1.477a2.5,2.5,0,0,1-.1-.262,1.712,1.712,0,0,1,0-.286v-.953a.143.143,0,0,1,0-.131h.107a.262.262,0,0,1,.071.083l1.357,2.81a.8.8,0,0,1,.1.357Z" transform="translate(-408.974 -144.379)" fill="#fff"/>
          <path id="Path_171" data-name="Path 171" d="M424.927,172.164a.345.345,0,0,1,.131.155.572.572,0,0,1,0,.238v1.036a.215.215,0,0,1,0,.167.1.1,0,0,1-.131,0l-.643-.369a.345.345,0,0,1-.131-.155.583.583,0,0,1,0-.238v-.964a.25.25,0,0,1,0-.179.1.1,0,0,1,.131,0Z" transform="translate(-408.232 -143.198)" fill="#fff"/>
          <path id="Path_172" data-name="Path 172" d="M426.734,173.211a.345.345,0,0,1,.131.155.572.572,0,0,1,0,.238v1.036a.214.214,0,0,1,0,.167.107.107,0,0,1-.131,0l-.643-.369a.429.429,0,0,1-.131-.155.632.632,0,0,1-.06-.238v-1.012a.25.25,0,0,1,.059-.179.1.1,0,0,1,.131,0Z" transform="translate(-407.896 -143.008)" fill="#fff"/>
          <path id="Path_173" data-name="Path 173" d="M428.534,174.257a.3.3,0,0,1,.131.155.572.572,0,0,1,0,.238v1.036a.238.238,0,0,1,0,.167.107.107,0,0,1-.131,0l-.643-.369a.393.393,0,0,1-.131-.167.536.536,0,0,1-.06-.226v-1.06a.238.238,0,0,1,.06-.167.107.107,0,0,1,.131,0Z" transform="translate(-407.553 -142.814)" fill="#fff"/>
          <path id="Path_174" data-name="Path 174" d="M415.017,171.185,446.4,189.308a1.429,1.429,0,0,1,.679,1.119c0,.4-.3.548-.679.333l-31.388-18.123a1.441,1.441,0,0,1-.667-1.107C414.35,171.125,414.648,170.982,415.017,171.185Z" transform="translate(-410.099 -143.339)" fill="#fff"/>
          <path id="Path_175" data-name="Path 175" d="M423.477,190.726l31.388,18.123a1.417,1.417,0,0,1,.679,1.107c0,.4-.3.56-.679.345l-31.388-18.123a1.441,1.441,0,0,1-.667-1.119C422.81,190.654,423.108,190.512,423.477,190.726Z" transform="translate(-408.485 -139.613)" fill="#e6e6e6"/>
          <path id="Path_176" data-name="Path 176" d="M423.475,200.485l15.039,8.68a1.441,1.441,0,0,1,.667,1.119c0,.4-.3.548-.667.333l-15.027-8.68a1.417,1.417,0,0,1-.667-1.107C422.808,200.426,423.106,200.271,423.475,200.485Z" transform="translate(-408.484 -137.751)" fill="#e6e6e6"/>
          <path id="Path_177" data-name="Path 177" d="M443.567,187.665l12.5,7.144a1.417,1.417,0,0,1,.679,1.107c0,.4-.31.56-.679.345l-12.5-7.144a1.417,1.417,0,0,1-.667-1.107C442.9,187.606,443.2,187.451,443.567,187.665Z" transform="translate(-404.653 -140.196)" fill="#fff"/>
          <path id="Path_178" data-name="Path 178" d="M415.017,224.906,446.4,243.029a1.417,1.417,0,0,1,.679,1.107c0,.4-.3.56-.679.345l-31.388-18.123a1.441,1.441,0,0,1-.667-1.119C414.35,224.834,414.648,224.692,415.017,224.906Z" transform="translate(-410.099 -133.093)" fill="#fff"/>
          <path id="Path_179" data-name="Path 179" d="M443.567,241.385l12.5,7.144a1.453,1.453,0,0,1,.679,1.119c0,.393-.31.548-.679.333l-12.5-7.144a1.441,1.441,0,0,1-.667-1.119C442.9,241.326,443.2,241.171,443.567,241.385Z" transform="translate(-404.653 -129.949)" fill="#fff"/>
          <path id="Path_180" data-name="Path 180" d="M443.567,226.756l12.5,7.144a1.429,1.429,0,0,1,.679,1.107c0,.4-.31.56-.679.345l-12.5-7.144a1.441,1.441,0,0,1-.667-1.119C442.9,226.7,443.2,226.541,443.567,226.756Z" transform="translate(-404.653 -132.74)" fill="#fff"/>
          <path id="Path_181" data-name="Path 181" d="M443.567,231.646l12.5,7.144a1.453,1.453,0,0,1,.679,1.107c0,.4-.31.56-.679.345l-12.5-7.144a1.441,1.441,0,0,1-.667-1.119C442.9,231.574,443.2,231.432,443.567,231.646Z" transform="translate(-404.653 -131.808)" fill="#fff"/>
          <path id="Path_182" data-name="Path 182" d="M434.607,221.576l7.025,4.06a1.405,1.405,0,0,1,.679,1.107c0,.4-.3.56-.679.345l-7.025-4.06a1.441,1.441,0,0,1-.667-1.119C433.94,221.516,434.238,221.361,434.607,221.576Z" transform="translate(-406.362 -133.728)" fill="#fff"/>
          <path id="Path_183" data-name="Path 183" d="M415.017,176.086l18.314,10.562a1.441,1.441,0,0,1,.667,1.107c0,.4-.3.56-.667.345l-18.314-10.562a1.441,1.441,0,0,1-.667-1.119C414.35,176,414.648,175.872,415.017,176.086Z" transform="translate(-410.099 -142.406)" fill="#fff"/>
          <path id="Path_184" data-name="Path 184" d="M415.017,176.086l18.314,10.562a1.441,1.441,0,0,1,.667,1.107c0,.4-.3.56-.667.345l-18.314-10.562a1.441,1.441,0,0,1-.667-1.119C414.35,176,414.648,175.872,415.017,176.086Z" transform="translate(-410.099 -142.406)" fill="#fff" opacity="0.6"/>
          <path id="Path_185" data-name="Path 185" d="M415.017,180.955l6.216,3.572a1.441,1.441,0,0,1,.667,1.107c0,.4-.3.56-.667.345l-6.216-3.572a1.441,1.441,0,0,1-.667-1.107C414.35,180.9,414.648,180.741,415.017,180.955Z" transform="translate(-410.099 -141.476)" fill="#fff"/>
          <path id="Path_186" data-name="Path 186" d="M415.017,180.955l6.216,3.572a1.441,1.441,0,0,1,.667,1.107c0,.4-.3.56-.667.345l-6.216-3.572a1.441,1.441,0,0,1-.667-1.107C414.35,180.9,414.648,180.741,415.017,180.955Z" transform="translate(-410.099 -141.476)" fill="#fff" opacity="0.6"/>
          <path id="Path_187" data-name="Path 187" d="M415.017,185.835l6.216,3.572a1.441,1.441,0,0,1,.667,1.119c0,.393-.3.548-.667.333l-6.216-3.572a1.405,1.405,0,0,1-.667-1.107C414.35,185.776,414.648,185.621,415.017,185.835Z" transform="translate(-410.099 -140.545)" fill="#fff"/>
          <path id="Path_188" data-name="Path 188" d="M415.017,185.835l6.216,3.572a1.441,1.441,0,0,1,.667,1.119c0,.393-.3.548-.667.333l-6.216-3.572a1.405,1.405,0,0,1-.667-1.107C414.35,185.776,414.648,185.621,415.017,185.835Z" transform="translate(-410.099 -140.545)" fill="#fff" opacity="0.6"/>
          <path id="Path_189" data-name="Path 189" d="M415.017,190.726l6.216,3.572a1.417,1.417,0,0,1,.667,1.107c0,.4-.3.56-.667.345l-6.216-3.572a1.441,1.441,0,0,1-.667-1.119C414.35,190.654,414.648,190.512,415.017,190.726Z" transform="translate(-410.099 -139.613)" fill="#fff"/>
          <path id="Path_190" data-name="Path 190" d="M415.017,190.726l6.216,3.572a1.441,1.441,0,0,1,.667,1.119c0,.4-.3.548-.667.333l-6.216-3.572a1.441,1.441,0,0,1-.667-1.119C414.35,190.654,414.648,190.512,415.017,190.726Z" transform="translate(-410.099 -139.613)" fill="#fff" opacity="0.6"/>
          <path id="Path_191" data-name="Path 191" d="M423.477,195.606l18.314,10.562a1.441,1.441,0,0,1,.667,1.119c0,.393-.3.548-.667.333l-18.314-10.562a1.441,1.441,0,0,1-.667-1.119C422.81,195.546,423.108,195.391,423.477,195.606Z" transform="translate(-408.485 -138.682)" fill="#fff" opacity="0.6"/>
          <path id="Path_192" data-name="Path 192" d="M441.037,205.735l7.966,4.62a1.4,1.4,0,0,1,.667,1.107c0,.4-.3.56-.667.345l-7.966-4.62a1.441,1.441,0,0,1-.667-1.107C440.37,205.676,440.668,205.521,441.037,205.735Z" transform="translate(-405.136 -136.749)" fill="#fff" opacity="0.6"/>
          <path id="Path_193" data-name="Path 193" d="M423.477,195.606l18.314,10.562a1.441,1.441,0,0,1,.667,1.119c0,.393-.3.548-.667.333l-18.314-10.562a1.441,1.441,0,0,1-.667-1.119C422.81,195.546,423.108,195.391,423.477,195.606Z" transform="translate(-408.485 -138.682)" fill="#fff" opacity="0.6"/>
          <path id="Path_194" data-name="Path 194" d="M441.037,205.735l7.966,4.62a1.4,1.4,0,0,1,.667,1.107c0,.4-.3.56-.667.345l-7.966-4.62a1.441,1.441,0,0,1-.667-1.107C440.37,205.676,440.668,205.521,441.037,205.735Z" transform="translate(-405.136 -136.749)" fill="#fff" opacity="0.6"/>
          <path id="Path_195" data-name="Path 195" d="M415.017,195.605l6.216,3.572a1.441,1.441,0,0,1,.667,1.107c0,.4-.3.56-.667.345l-6.216-3.572a1.441,1.441,0,0,1-.667-1.107C414.35,195.546,414.648,195.391,415.017,195.605Z" transform="translate(-410.099 -138.682)" fill="#fff"/>
          <path id="Path_196" data-name="Path 196" d="M415.017,195.605l6.216,3.572a1.441,1.441,0,0,1,.667,1.107c0,.4-.3.56-.667.345l-6.216-3.572a1.441,1.441,0,0,1-.667-1.107C414.35,195.546,414.648,195.391,415.017,195.605Z" transform="translate(-410.099 -138.682)" fill="#fff" opacity="0.6"/>
          <path id="Path_197" data-name="Path 197" d="M432.577,186.217l7.966,4.608a1.441,1.441,0,0,1,.667,1.119c0,.393-.3.548-.667.333l-7.966-4.608a1.441,1.441,0,0,1-.667-1.119C431.91,186.158,432.208,185.979,432.577,186.217Z" transform="translate(-406.75 -140.474)" fill="#fff"/>
          <path id="Path_198" data-name="Path 198" d="M432.577,186.217l7.966,4.608a1.441,1.441,0,0,1,.667,1.119c0,.393-.3.548-.667.333l-7.966-4.608a1.441,1.441,0,0,1-.667-1.119C431.91,186.158,432.208,185.979,432.577,186.217Z" transform="translate(-406.75 -140.474)" fill="#fff" opacity="0.6"/>
          <path id="Path_199" data-name="Path 199" d="M429.817,209.013l18.314,10.562a1.453,1.453,0,0,1,.679,1.119c0,.4-.31.548-.679.345l-18.314-10.574a1.441,1.441,0,0,1-.667-1.107C429.15,209.013,429.448,208.81,429.817,209.013Z" transform="translate(-407.276 -136.121)" fill="#fff"/>
          <path id="Path_200" data-name="Path 200" d="M438.693,219.01l18.349,10.609a1.453,1.453,0,0,1,.679,1.119c0,.393-.31.548-.679.333l-18.3-10.562a1.429,1.429,0,0,1-.679-1.119C437.99,219.01,438.312,218.844,438.693,219.01Z" transform="translate(-405.578 -134.211)" fill="#fff"/>
          <path id="Path_201" data-name="Path 201" d="M447.382,219.163l8,4.584a1.453,1.453,0,0,1,.679,1.107c0,.4-.31.56-.679.345l-7.954-4.608a1.429,1.429,0,0,1-.679-1.119C446.7,219.092,447.048,218.985,447.382,219.163Z" transform="translate(-403.92 -134.186)" fill="#fff"/>
          <path id="Path_202" data-name="Path 202" d="M447.389,238.506l7.954,4.608a1.453,1.453,0,0,1,.679,1.119c0,.393-.31.548-.679.333l-7.954-4.608a1.429,1.429,0,0,1-.679-1.119C446.71,238.446,447.055,238.291,447.389,238.506Z" transform="translate(-403.927 -130.499)" fill="#e6e6e6"/>
          <path id="Path_203" data-name="Path 203" d="M423.477,185.836l18.314,10.574a1.417,1.417,0,0,1,.667,1.107c0,.4-.3.56-.667.345l-18.314-10.621a1.405,1.405,0,0,1-.667-1.107C422.81,185.776,423.108,185.621,423.477,185.836Z" transform="translate(-408.485 -140.545)" fill="#fff"/>
          <path id="Path_204" data-name="Path 204" d="M423.477,185.836l18.314,10.574a1.417,1.417,0,0,1,.667,1.107c0,.4-.3.56-.667.345l-18.314-10.621a1.405,1.405,0,0,1-.667-1.107C422.81,185.776,423.108,185.621,423.477,185.836Z" transform="translate(-408.485 -140.545)" fill="#fff" opacity="0.6"/>
          <path id="Path_205" data-name="Path 205" d="M441.037,196.021,449,200.629a1.441,1.441,0,0,1,.667,1.119c0,.393-.3.548-.667.333l-7.966-4.608a1.441,1.441,0,0,1-.667-1.119C440.37,195.9,440.668,195.759,441.037,196.021Z" transform="translate(-405.136 -138.609)" fill="#fff"/>
          <path id="Path_206" data-name="Path 206" d="M441.037,196.021,449,200.629a1.441,1.441,0,0,1,.667,1.119c0,.393-.3.548-.667.333l-7.966-4.608a1.441,1.441,0,0,1-.667-1.119C440.37,195.9,440.668,195.759,441.037,196.021Z" transform="translate(-405.136 -138.609)" fill="#fff" opacity="0.6"/>
        </g>
        <g id="freepik--Mouse--inject-64" transform="translate(212.113 234.927)">
          <path id="Path_207" data-name="Path 207" d="M336.537,255.222l11.217,6.478a12.36,12.36,0,0,0,12.384-.655l18.516-13.515c3.3-2.381,3.108-5.954-.429-8.061l-5.62-3.263a15.277,15.277,0,0,0-13.015-.393l-22.85,12.372C333.084,250.03,332.988,253.174,336.537,255.222Z" transform="translate(-333.935 -234.22)" opacity="0.15"/>
          <path id="Path_208" data-name="Path 208" d="M378.657,241.7l-12.789,10.014-9.454,7.395a8.335,8.335,0,0,1-3.013.726,8.193,8.193,0,0,1-4.489-.941l-10.038-5.8h-.06a7.144,7.144,0,0,1-2.036-10.157l.3-.417a13.384,13.384,0,0,1,8.085-5.12l5.084-1.012c8.24-1.679,14.991-2.489,15.777-1.953l12.586,7.287Z" transform="translate(-333.641 -234.272)" fill="#37474f"/>
          <path id="Path_209" data-name="Path 209" d="M368.868,247.07l.726-.572-11.3-6.513,9.883-3.06-1-.583-9.883,3.06-6.74-3.882-1.274.238Z" transform="translate(-331.008 -234.034)" fill="#fff"/>
          <path id="Path_210" data-name="Path 210" d="M354.671,257.318h0l9-6.5,12.134-8.764v-1.429a.119.119,0,0,0-.06-.107h-.071c-.9-.31-6.168,1.274-12.527,3.8l-4.215,1.679a13.348,13.348,0,0,0-8.454,12.467v.214a8.335,8.335,0,0,0,3.013-.726Z" transform="translate(-330.78 -233.089)" fill="#263238"/>
        </g>
      </g>
    </g>
    <g id="freepik--Plant--inject-64" transform="translate(417.861 333.986)">
      <g id="freepik--Pot--inject-64">
        <path id="Path_211" data-name="Path 211" d="M374.9,417.485c-12.36-12.753-19.612-64.645-7.561-74.755h61.323c12.05,10.109,4.763,61.99-7.549,74.743l-.345.357c-.131.143-.274.286-.417.417-.357.345-.726.679-1.119,1l-.3.238c-.3.238-.6.476-.929.714a18.158,18.158,0,0,1-1.6,1.036c-10.169,5.954-26.649,5.954-36.818,0h0c-.536-.31-1.072-.667-1.608-1.048-.31-.214-.583-.441-.869-.667l-.357-.286a14.478,14.478,0,0,1-1.084-.965c-.167-.155-.333-.321-.488-.488a3.379,3.379,0,0,1-.286-.3Z" transform="translate(-353.86 -273.358)" fill="#fff"/>
        <g id="Group_18" data-name="Group 18" transform="translate(7.306 69.372)" opacity="0.5">
          <path id="Path_212" data-name="Path 212" d="M374.9,417.485c-12.36-12.753-19.612-64.645-7.561-74.755h61.323c12.05,10.109,4.763,61.99-7.549,74.743l-.345.357c-.131.143-.274.286-.417.417-.357.345-.726.679-1.119,1l-.3.238c-.3.238-.6.476-.929.714a18.158,18.158,0,0,1-1.6,1.036c-10.169,5.954-26.649,5.954-36.818,0h0c-.536-.31-1.072-.667-1.608-1.048-.31-.214-.583-.441-.869-.667l-.357-.286a14.478,14.478,0,0,1-1.084-.965c-.167-.155-.333-.321-.488-.488a3.379,3.379,0,0,1-.286-.3Z" transform="translate(-361.167 -342.73)" fill="#fff"/>
        </g>
        <path id="Path_213" data-name="Path 213" d="M423.179,340.291c13.991,8.168,13.991,21.433,0,29.59s-36.687,8.168-50.678,0-13.991-21.433,0-29.59S409.188,332.122,423.179,340.291Z" transform="translate(-353.7 -274.991)" fill="#fff"/>
        <g id="Group_19" data-name="Group 19" transform="translate(8.308 59.178)" opacity="0.7">
          <path id="Path_214" data-name="Path 214" d="M423.179,340.291c13.991,8.168,13.991,21.433,0,29.59s-36.687,8.168-50.678,0-13.991-21.433,0-29.59S409.188,332.122,423.179,340.291Z" transform="translate(-362.008 -334.169)" fill="#fff"/>
        </g>
        <path id="Path_215" data-name="Path 215" d="M414.927,343.331c10.276,5.954,10.276,15.73,0,21.731s-26.946,5.954-37.223,0-10.276-15.73,0-21.731S404.651,337.33,414.927,343.331Z" transform="translate(-352.176 -274.102)" fill="#fff"/>
        <g id="Group_20" data-name="Group 20" transform="translate(17.822 64.728)" opacity="0.3">
          <path id="Path_216" data-name="Path 216" d="M414.927,343.331c10.276,5.954,10.276,15.73,0,21.731s-26.946,5.954-37.223,0-10.276-15.73,0-21.731S404.651,337.33,414.927,343.331Z" transform="translate(-369.997 -338.83)"/>
        </g>
        <path id="Path_217" data-name="Path 217" d="M377.456,351.985c10.276-5.954,26.947-5.954,37.223,0a17.1,17.1,0,0,1,6.144,5.7,17.123,17.123,0,0,1-6.144,5.716c-10.276,5.954-26.946,5.954-37.223,0a17.266,17.266,0,0,1-6.156-5.715,17.241,17.241,0,0,1,6.156-5.7Z" transform="translate(-351.927 -272.445)" fill="#f5f5f5"/>
        <g id="freepik--Plants--inject-64">
          <path id="Path_218" data-name="Path 218" d="M388.165,337.827a17.185,17.185,0,0,1-1.56-4.477c-.691-3.739.238-8.014,3.263-10.324,1.191-.9,2.774-1.584,3.286-3.013a4.931,4.931,0,0,0,0-2.465c-.56-3.191-1.631-6.478-.75-9.585a10.717,10.717,0,0,1,5.954-6.382,32.15,32.15,0,0,1,8.657-2.262,14.017,14.017,0,0,0,4.584-1.31c1.715-.965,2.25-2.655,3.31-4.144a28.935,28.935,0,0,1,4.215-4.489c3.12-2.786,7.025-5.084,11.348-4.894,9.026.393,8.764,8.157,6.168,14.039s-3.286,7.8,2.381,13.932,5.644,13.694-1.084,17.861-11.1,4.763-8.43,12.931c2.381,7.275,3.846,13.479-2.87,21.255-4.346,5.025-10.288,8.609-17.718,8.335a29.914,29.914,0,0,1-8.7-2c-2.048-1.012-.667-2.6-1.357-4.62l-4.453-13a96.536,96.536,0,0,0-3.572-10.264C390.01,341.161,389.01,339.53,388.165,337.827Z" transform="translate(-349.05 -284.471)" fill="#fff"/>
          <g id="Group_21" data-name="Group 21" transform="translate(37.339)">
            <path id="Path_219" data-name="Path 219" d="M388.165,337.827a17.185,17.185,0,0,1-1.56-4.477c-.691-3.739.238-8.014,3.263-10.324,1.191-.9,2.774-1.584,3.286-3.013a4.931,4.931,0,0,0,0-2.465c-.56-3.191-1.631-6.478-.75-9.585a10.717,10.717,0,0,1,5.954-6.382,32.15,32.15,0,0,1,8.657-2.262,14.017,14.017,0,0,0,4.584-1.31c1.715-.965,2.25-2.655,3.31-4.144a28.935,28.935,0,0,1,4.215-4.489c3.12-2.786,7.025-5.084,11.348-4.894,9.026.393,8.764,8.157,6.168,14.039s-3.286,7.8,2.381,13.932,5.644,13.694-1.084,17.861-11.1,4.763-8.43,12.931c2.381,7.275,3.846,13.479-2.87,21.255-4.346,5.025-10.288,8.609-17.718,8.335a29.914,29.914,0,0,1-8.7-2c-2.048-1.012-.667-2.6-1.357-4.62l-4.453-13a96.536,96.536,0,0,0-3.572-10.264C390.01,341.161,389.01,339.53,388.165,337.827Z" transform="translate(-386.388 -284.471)" fill="#06a564"/>
          </g>
          <path id="Path_220" data-name="Path 220" d="M398.318,368.729a.631.631,0,0,0,.441-.631c-.381-44.558,24.184-71.159,24.434-71.444a.691.691,0,0,0,0-.953.667.667,0,0,0-.941,0c-.25.262-25.172,27.232-24.791,72.349a.655.655,0,0,0,.667.667Z" transform="translate(-346.938 -282.366)" fill="#fff"/>
          <path id="Path_221" data-name="Path 221" d="M404.321,323.8l.143-.06c7.99-5.037,22.243-8.788,22.386-8.823a.679.679,0,0,0,.476-.822.655.655,0,0,0-.81-.476c-.6.155-14.6,3.834-22.755,8.978a.668.668,0,0,0,.56,1.2Z" transform="translate(-345.797 -278.915)" fill="#fff"/>
          <path id="Path_222" data-name="Path 222" d="M407.569,319.165h0a.679.679,0,0,0,.369-.881,51.833,51.833,0,0,0-7.371-12.4.655.655,0,0,0-.941-.071.679.679,0,0,0-.071.941A51.069,51.069,0,0,1,406.7,318.8a.655.655,0,0,0,.869.369Z" transform="translate(-346.568 -280.431)" fill="#fff"/>
          <path id="Path_223" data-name="Path 223" d="M400.147,371.512a37.45,37.45,0,0,1-19.564.714c-11.217-2.382-18.087-12.908-18.087-12.908s12.146-4.858,19.219-5.335a62.657,62.657,0,0,0-21.255.452s-6.5-2.381-5.275-13.384c0,0,6.12-4.513,20.243-2.739,0,0-7.049-5.037-19.421-6.525-.976,0,.345-14.289,1.524-20.659s3.572-5.382,8.573-4.834,20.016,3.953,21.91,7.621.06,13.027.06,13.027a21.434,21.434,0,0,0,4.12-12.241s5.632,2.06,8.645,4.763a20.028,20.028,0,0,1,5.382,6.74c-.7,5.013-3.06,12.67-6.371,16.944,0,0,7.454-4.823,9.157-13.682a30.96,30.96,0,0,1,5.954,17.444C414.793,358.116,409.768,366.439,400.147,371.512Z" transform="translate(-355.031 -280.385)" fill="#fff"/>
          <path id="Path_224" data-name="Path 224" d="M400.147,371.512a37.45,37.45,0,0,1-19.564.714c-11.217-2.382-18.087-12.908-18.087-12.908s12.146-4.858,19.219-5.335a62.657,62.657,0,0,0-21.255.452s-6.5-2.381-5.275-13.384c0,0,6.12-4.513,20.243-2.739,0,0-7.049-5.037-19.421-6.525-.976,0,.345-14.289,1.524-20.659s3.572-5.382,8.573-4.834,20.016,3.953,21.91,7.621.06,13.027.06,13.027a21.434,21.434,0,0,0,4.12-12.241s5.632,2.06,8.645,4.763a20.028,20.028,0,0,1,5.382,6.74c-.7,5.013-3.06,12.67-6.371,16.944,0,0,7.454-4.823,9.157-13.682a30.96,30.96,0,0,1,5.954,17.444C414.793,358.116,409.768,366.439,400.147,371.512Z" transform="translate(-355.031 -280.385)" fill="#01bf71"/>
          <path id="Path_225" data-name="Path 225" d="M400.05,370.263a.619.619,0,0,1-.4-.548c-1.7-21.267-25.494-54.476-36.008-61.145a.667.667,0,0,1-.2-.893.655.655,0,0,1,.881-.2c10.717,6.775,34.877,40.485,36.592,62.133a.631.631,0,0,1-.583.691.536.536,0,0,1-.274-.036Z" transform="translate(-353.445 -280.1)" fill="#fff"/>
        </g>
      </g>
    </g>
    <g id="freepik--Character--inject-64" transform="translate(93.751 134.33)">
      <g id="freepik--character--inject-64-2" data-name="freepik--character--inject-64">
        <path id="Path_226" data-name="Path 226" d="M214.1,351.968c0-.238-3.822-14.051-3.822-14.051s1.25,1.274,9.228-.834a45.246,45.246,0,0,0,8.681-3.644l2.274,10.1c2.131,3.882,9.181,2.1,16.9,1.191,1.3-.155,2.632-.369,3.965-.6h.083c4.168-.226,8.335,2.274,4.025,5.835s-11.491,4.894-18.075,6.085C229.427,357.541,215.519,359.863,214.1,351.968Z" transform="translate(-58.53 -75.475)" fill="#ffa8a7"/>
        <path id="Path_227" data-name="Path 227" d="M269.029,348a8.085,8.085,0,0,1,.572,4.239c-.143,1.536-3.953,6.751-10.717,9.955s-15.027,3.406-18.909,4.525-7.454,3.346-12.038,4.465-9.121,1.715-13.717-1.322c-.845-1.3-1.774-4.31-1.512-4.608C213.541,364.468,269.029,348,269.029,348Z" transform="translate(-58.076 -72.697)" fill="#263238"/>
        <path id="Path_228" data-name="Path 228" d="M231.405,343.41c2.953,2.036,9.073.619,15.682-.131,6.24-.714,13.253-2.905,17.492-1.429s7.776,6.454,2.048,12.848c-1.655,1.846-5.156,5.1-7.966,6.108-7.144,2.548-13.5,2.751-18.075,3.882-5.954,1.465-9.216,4.108-14.718,4.763-7.144.833-11.645-1-12.884-2.905s-2.381-17.254.679-16.932c0,0,1.286,4.965,12.943.143C231.691,347.625,231.608,344.506,231.405,343.41Z" transform="translate(-58.258 -73.966)" fill="#fff"/>
        <path id="Path_229" data-name="Path 229" d="M231.405,343.41c2.953,2.036,9.073.619,15.682-.131,6.24-.714,13.253-2.905,17.492-1.429s7.776,6.454,2.048,12.848c-1.655,1.846-5.156,5.1-7.966,6.108-7.144,2.548-13.5,2.751-18.075,3.882-5.954,1.465-9.216,4.108-14.718,4.763-7.144.833-11.645-1-12.884-2.905s-2.381-17.254.679-16.932c0,0,1.286,4.965,12.943.143C231.691,347.625,231.608,344.506,231.405,343.41Z" transform="translate(-58.258 -73.966)" opacity="0.4"/>
        <path id="Path_230" data-name="Path 230" d="M246.147,351.349s-.667-6.478-5.454-8.192a2.513,2.513,0,0,0-2.643.345s4.441.643,5.954,8.252c0,0,.226.5,1.191.322C245.48,352,246.195,351.873,246.147,351.349Z" transform="translate(-53.233 -73.665)" fill="#fafafa"/>
        <path id="Path_231" data-name="Path 231" d="M234.62,343.9s0-.214,1.119-.417a2,2,0,0,1,1.322.143s3.572,1.548,4.239,8.335c0,0,0,.81-1.107,1.036a.976.976,0,0,1-1.274-.667S238.18,345.193,234.62,343.9Z" transform="translate(-53.888 -73.57)" fill="#fafafa"/>
        <path id="Path_232" data-name="Path 232" d="M231.4,344s.2-.4,1.036-.4c1.06,0,1.31.417,1.31.417s2.548,2.608,2.572,8.276c0,0,.107.953-1.191,1.048s-1.191-.976-1.191-.976S233.484,345.148,231.4,344Z" transform="translate(-54.502 -73.537)" fill="#fafafa"/>
        <path id="Path_233" data-name="Path 233" d="M213.472,270.2c5.835,17.54,21.314,77.934,21.314,77.934s-10.074,9.05-21,4.93L187.74,277.857Z" transform="translate(-62.83 -87.537)" fill="#37474f"/>
        <path id="Path_234" data-name="Path 234" d="M248.048,368.395c-1.191-1.774-5.668-14.051-5.668-14.051s4.668,2.667,12.705.762c4.084-.976,7.907-5.406,7.907-5.406l3.429,11.8c2.024,3.941,8.585,2.643,16.325,1.953,1.3-.119,2.632-.31,3.977-.5h.083c4.168-.119,8.335,2.477,3.87,5.954s-11.6,4.62-18.218,5.644C264.552,375.753,252.513,375.063,248.048,368.395Z" transform="translate(-52.407 -72.373)" fill="#ffa8a7"/>
        <path id="Path_235" data-name="Path 235" d="M307.319,365.09a8.7,8.7,0,0,1,.512,4.572c-.2,1.643-4.43,7.144-11.717,10.4s-16.23,3.263-20.433,4.358-8.085,3.405-13.039,4.489-9.836,1.584-14.682-1.774c-.881-1.429-1.81-4.691-1.5-5C247.258,381.308,307.319,365.09,307.319,365.09Z" transform="translate(-51.641 -69.438)" fill="#263238"/>
        <path id="Path_236" data-name="Path 236" d="M267.132,359.08a12.434,12.434,0,0,0,1.465.9,4.371,4.371,0,0,0,1.619.333,22.516,22.516,0,0,0,3.906.1c3.263-.155,6.513-.655,9.776-.941,6.7-.6,14.289-2.763,18.8-1.072s8.633,7.144,2.31,13.824a30.96,30.96,0,0,1-8.454,6.418c-7.49,3.132-15.265,2.548-20.243,3.644-6.43,1.417-10,4.168-15.932,4.7-7.68.7-12.467-1.381-13.741-3.465-.714-1.191.071-7.144-.881-11.848-.834-4.025-.619-6.763.833-6.585a7.143,7.143,0,0,0,1.119,1.429,5.371,5.371,0,0,0,1.7,1.346,13.442,13.442,0,0,0,2.882.965,17.018,17.018,0,0,0,5.346.738,2.6,2.6,0,0,0,1.453-.464,3.06,3.06,0,0,0,.845-1.81c.119-.6.25-1.191.369-1.786a2.5,2.5,0,0,1,.333-.917,2.382,2.382,0,0,1,.9-.726,7.811,7.811,0,0,0,2.929-2.227,6.882,6.882,0,0,0,.857-2.763.679.679,0,0,1,.19-.453c.214-.167.536,0,.774.131Z" transform="translate(-51.856 -70.834)" fill="#fff"/>
        <path id="Path_237" data-name="Path 237" d="M267.132,359.08a12.434,12.434,0,0,0,1.465.9,4.371,4.371,0,0,0,1.619.333,22.516,22.516,0,0,0,3.906.1c3.263-.155,6.513-.655,9.776-.941,6.7-.6,14.289-2.763,18.8-1.072s8.633,7.144,2.31,13.824a30.96,30.96,0,0,1-8.454,6.418c-7.49,3.132-15.265,2.548-20.243,3.644-6.43,1.417-10,4.168-15.932,4.7-7.68.7-12.467-1.381-13.741-3.465-.714-1.191.071-7.144-.881-11.848-.834-4.025-.619-6.763.833-6.585a7.143,7.143,0,0,0,1.119,1.429,5.371,5.371,0,0,0,1.7,1.346,13.442,13.442,0,0,0,2.882.965,17.018,17.018,0,0,0,5.346.738,2.6,2.6,0,0,0,1.453-.464,3.06,3.06,0,0,0,.845-1.81c.119-.6.25-1.191.369-1.786a2.5,2.5,0,0,1,.333-.917,2.382,2.382,0,0,1,.9-.726,7.811,7.811,0,0,0,2.929-2.227,6.882,6.882,0,0,0,.857-2.763.679.679,0,0,1,.19-.453c.214-.167.536,0,.774.131Z" transform="translate(-51.856 -70.834)" opacity="0.4"/>
        <path id="Path_238" data-name="Path 238" d="M282.56,368.306s-.548-6.978-5.644-8.942a2.715,2.715,0,0,0-2.846.3s4.763.81,6.12,9.014c0,0,.238.548,1.286.381C281.822,369.008,282.6,368.889,282.56,368.306Z" transform="translate(-46.363 -70.582)" fill="#fafafa"/>
        <path id="Path_239" data-name="Path 239" d="M270.38,360.016s0-.238,1.191-.429a2.119,2.119,0,0,1,1.405.191s3.8,1.75,4.334,9.05c0,0,0,.869-1.191,1.084a1.06,1.06,0,0,1-1.357-.75S274.178,361.492,270.38,360.016Z" transform="translate(-47.067 -70.496)" fill="#fafafa"/>
        <path id="Path_240" data-name="Path 240" d="M266.92,360.065s.226-.429,1.131-.4c1.131,0,1.381.476,1.381.476s2.667,2.87,2.548,8.943c0,0,.1,1.036-1.346,1.107s-1.191-1.084-1.191-1.084S269.135,361.315,266.92,360.065Z" transform="translate(-47.727 -70.473)" fill="#fafafa"/>
        <path id="Path_241" data-name="Path 241" d="M248.679,287.9c4.6,14.134,16.337,54.369,21.7,75.017,0,0-9.633,8.669-22.029,7.907l-29.876-77.47,11.907-7.359Z" transform="translate(-56.968 -84.525)" fill="#455a64"/>
        <path id="Path_242" data-name="Path 242" d="M161.541,470.566a1.941,1.941,0,0,0,1.941-1.941v-124.5a1.941,1.941,0,0,0-3.882,0v124.54a1.941,1.941,0,0,0,1.941,1.905Z" transform="translate(-68.197 -73.807)" fill="#455a64"/>
        <path id="Path_243" data-name="Path 243" d="M96.832,428.123a1.929,1.929,0,0,0,1.8-1.191l38.187-96.664a1.929,1.929,0,1,0-3.572-1.417L95.022,425.42a1.941,1.941,0,0,0,1.084,2.512,1.916,1.916,0,0,0,.726.19Z" transform="translate(-80.541 -76.613)" fill="#455a64"/>
        <path id="Path_244" data-name="Path 244" d="M100.68,415.116a1.917,1.917,0,0,0,1.405-.607l71.063-75.2,70.932,74.874a1.941,1.941,0,0,0,2.81-2.667l-72.338-76.362a1.953,1.953,0,0,0-1.405-.607h0a1.941,1.941,0,0,0-1.405.607L99.275,411.841a1.941,1.941,0,0,0,1.405,3.275Z" transform="translate(-79.805 -75.263)" fill="#455a64"/>
        <path id="Path_245" data-name="Path 245" d="M232.382,428.146A1.918,1.918,0,0,0,233.1,428a1.941,1.941,0,0,0,1.084-2.512l-38.187-96.652a1.941,1.941,0,1,0-3.572,1.417l38.2,96.664a1.929,1.929,0,0,0,1.762,1.226Z" transform="translate(-61.985 -76.636)" fill="#455a64"/>
        <path id="Path_246" data-name="Path 246" d="M251.736,315.075c1.393-7.811-4.965-13.908-16.944-21.993a283.93,283.93,0,0,0-34.686-19.492c-10.026-4.6-20.243-4.168-33.091,2.381-17.861,9.157-71.444,41.676-71.444,41.676s80.161,45.248,95.581,43.224,53.964-27.1,57.025-35.925S251.736,315.075,251.736,315.075Z" transform="translate(-80.41 -87.473)" fill="#fff"/>
        <g id="Group_22" data-name="Group 22" transform="translate(15.16 183.061)" opacity="0.4">
          <path id="Path_247" data-name="Path 247" d="M251.736,315.075c1.393-7.811-4.965-13.908-16.944-21.993a283.93,283.93,0,0,0-34.686-19.492c-10.026-4.6-20.243-4.168-33.091,2.381-17.861,9.157-71.444,41.676-71.444,41.676s80.161,45.248,95.581,43.224,53.964-27.1,57.025-35.925S251.736,315.075,251.736,315.075Z" transform="translate(-95.57 -270.534)"/>
        </g>
        <path id="Path_248" data-name="Path 248" d="M169.35,344.246c11.5,10.419,23.529,1.453,42.557-10.9,21.54-13.967,25.756-25.41,25.756-25.41s0,8.573-1.608,12.586-5.084,8.573-20.612,19.278-26.78,16.063-37.223,18.052l-8.24-1.131" transform="translate(-66.337 -80.338)" fill="#fff"/>
        <path id="Path_249" data-name="Path 249" d="M211.907,333.35c21.54-13.967,25.756-25.41,25.756-25.41s0,8.573-1.608,12.586-5.084,8.573-20.612,19.278-26.78,16.063-37.223,18.052l-8.24-1.131-.631-12.479C180.841,354.665,192.879,345.7,211.907,333.35Z" transform="translate(-66.337 -80.338)" opacity="0.5"/>
        <path id="Path_250" data-name="Path 250" d="M99.966,399.22l-5.954,13.6a1.893,1.893,0,0,0-.071.357,1.593,1.593,0,0,0,0,.25,1.679,1.679,0,0,0,.75.9,3.572,3.572,0,0,0,3.191.155,1.405,1.405,0,0,0,.655-.631h0v-.179l5.477-12.753Z" transform="translate(-80.722 -62.928)" fill="#fff"/>
        <path id="Path_251" data-name="Path 251" d="M224.377,399.7l5.084,13.324a1.609,1.609,0,0,1,0,.345v.238a1.56,1.56,0,0,1-.762.834,3.334,3.334,0,0,1-3.072,0,1.369,1.369,0,0,1-.607-.619h0v-.191l-4.68-12.491Z" transform="translate(-56.611 -62.836)" fill="#fff"/>
        <path id="Path_252" data-name="Path 252" d="M159.35,440.389v11.026a1.191,1.191,0,0,0,.655.9,3.453,3.453,0,0,0,3.167,0,1.107,1.107,0,0,0,.643-.9V440.389A4.763,4.763,0,0,0,159.35,440.389Z" transform="translate(-68.245 -55.181)" fill="#fff"/>
        <path id="Path_253" data-name="Path 253" d="M122.54,270.516c4.561,5.323,46.106-6.632,57.156-8.133,17.742-2.382,32.15-4.18,38.223-2.286s8.585,4.965,10.431,12.181c2.179,8.5,3.3,12.848,3.3,12.848s-29.483,11.312-52.75,14.039S122.54,270.516,122.54,270.516Z" transform="translate(-75.266 -89.615)" fill="#37474f"/>
        <path id="Path_254" data-name="Path 254" d="M116.768,276.235c-4.608,17.552-8.74,37.961,1.917,49.13,7.144,7.526,43.236,27.077,66.5,19.373,22.91-7.585,70.373-42.867,75.136-46.356s9.085-5.954,8.633-7.478c-6.394-21.243-15.753-22.91-33.091-19.052-21.219,4.668-67.777,23.66-67.777,23.66Z" transform="translate(-77.281 -87.535)" fill="#455a64"/>
        <path id="Path_255" data-name="Path 255" d="M211.223,183.591l-16,18.087L169.38,189.414l18.064-24.994Z" transform="translate(-66.331 -107.714)" fill="#ffa8a7"/>
        <path id="Path_256" data-name="Path 256" d="M221.19,151.66s6.549,9.454,5.847,10.419S221.7,164,221.7,164Z" transform="translate(-56.449 -110.147)" fill="#f28f8f"/>
        <path id="Path_257" data-name="Path 257" d="M222.405,159.42a7.835,7.835,0,1,1,7.835-7.835,7.835,7.835,0,0,1-7.835,7.835Zm0-14.229a6.371,6.371,0,1,1,0,.048Z" transform="translate(-57.712 -111.656)" fill="#263238"/>
        <path id="Path_258" data-name="Path 258" d="M212.17,129.841c12.872,2.381,16.67,7.954,18.373,28.28,1.738,21.231-.274,27.971-3,30.888-1.846,1.977-12.312,2.572-17.635,1.191-6.656-1.679-21.731-6.632-28.971-17.17-8.526-12.4-11.086-29.4-2.381-36.591C190.7,126.352,206.931,128.865,212.17,129.841Z" transform="translate(-65.612 -114.501)" fill="#ffa8a7"/>
        <path id="Path_259" data-name="Path 259" d="M204.743,181.329c5.537,1.191,13.967.488,16.468-.941a19.052,19.052,0,0,1-9.323-.345,30.494,30.494,0,0,1-8.538-3.763Z" transform="translate(-59.852 -105.451)" fill="#f28f8f"/>
        <path id="Path_260" data-name="Path 260" d="M234.671,140.461h0c-3.572,2.477-7.978,3.5-12.288,4.179.333,3.441-.75,6.847-1.822,10.145-.738,2.274-3.417,9.431-6.335,5.5-2.108-2.834-4.013-5.418-8.049-4.763-6.644,1.191-7.347,9.657-3.024,14.729s8.192,3,8.192,3,.607,9.157-4.227,15.634c0,0-7.2,4.43-17.325,1.1-6.382-2.108-15.6-10.157-18.992-16.444-9.347-17.29-9.395-33.865,1.941-38.961,1.048-8.335,7.466-12.146,14.837-14.015,10.228-2.6,20.85,3.822,30.733-.417,2.084-.893,4-2.155,6.132-2.929a4.239,4.239,0,0,1,3.679,0,4.477,4.477,0,0,1,1.572,2.81,7.883,7.883,0,0,1-.393,5.954,17.861,17.861,0,0,1,4.656-1.715,5.835,5.835,0,0,1,4.692,1.06,6.037,6.037,0,0,1,1.881,4.1C240.9,133.792,238.243,137.972,234.671,140.461Z" transform="translate(-67.358 -116.797)" fill="#263238"/>
        <path id="Path_261" data-name="Path 261" d="M172.434,135.21l-7.764-4.346a4.453,4.453,0,1,1,7.764,4.346Z" transform="translate(-67.23 -114.583)" fill="#263238"/>
        <rect id="Rectangle_11" data-name="Rectangle 11" width="25.315" height="1.226" transform="matrix(0.983, -0.183, 0.183, 0.983, 146.716, 42.925)" fill="#263238"/>
        <path id="Path_262" data-name="Path 262" d="M257.686,190.409c-.667-1.119-2.155-1.346-3.394-1.774-2.286-.8-4.072-2.62-6.275-3.572a12.384,12.384,0,0,0-7.93-.536,20.1,20.1,0,0,0-2.643.845,33.268,33.268,0,0,0-4.763,2.381c-6.311,3.727-11.05,12.169-17.254,16.039-2.31,1.441-4.465,2.751-6.6,4.06l14.849,13.158a88.661,88.661,0,0,1,7.311-5.561c3.644-2.167,7.323-2.215,11.419-2.81a56.657,56.657,0,0,0,8.335-2.084,3.679,3.679,0,0,0,2.465-1.608,2.477,2.477,0,0,0-1.6-3.048,21.434,21.434,0,0,0-4.322-.6c-1.072-.167-3.929.464-4.561-.607-.333-.572.083-1.262.488-1.774,2.572-3.2,5.823-6.632,9.931-7.6a8.621,8.621,0,0,0,3.572-1.441A2.846,2.846,0,0,0,257.686,190.409Z" transform="translate(-58.807 -103.957)" fill="#ffa8a7"/>
        <path id="Path_263" data-name="Path 263" d="M183.432,177.674c-15.73-8.585-30.054-3.072-35.21,7.966-4.68,9.99-14.491,48.642-14.491,48.642C138.445,243.164,183.432,177.674,183.432,177.674Z" transform="translate(-73.131 -105.988)" fill="#fff"/>
        <path id="Path_264" data-name="Path 264" d="M184.437,180.551l2.381-3.108c-17.766-8.43-33.662,2.643-47.63,24.434-15.1,23.481-23.017,57.156-23.088,92.771,0,0,3.013,15.992,23.208,23.982,21.433,8.49,51.333,4.894,60.656-17.325,0,0,.191-22.184,6.93-33.115,4.37-7.073,14.551-22.779,22.124-34.055,6.6-9.812,11.729-32.15-2.048-40.307a116.988,116.988,0,0,0-11.2-5.716C203.167,192.256,182.817,185.528,184.437,180.551Z" transform="translate(-76.494 -105.769)" fill="#fff"/>
        <path id="Path_265" data-name="Path 265" d="M184.488,180.634l2.31-3.191c-17.766-8.43-33.662,2.643-47.63,24.434-15.1,23.481-23.017,57.156-23.088,92.771,0,0,3.013,15.992,23.208,23.982,21.433,8.49,51.333,4.894,60.656-17.325,0,0,.191-22.184,6.93-33.115,4.37-7.073,14.551-22.779,22.124-34.055,6.6-9.812,11.729-32.15-2.048-40.307a116.988,116.988,0,0,0-11.2-5.716C203.171,192.256,182.869,185.612,184.488,180.634Z" transform="translate(-76.498 -105.769)" fill="#fff" opacity="0.75"/>
        <path id="Path_266" data-name="Path 266" d="M234.692,214.721a35.961,35.961,0,0,0,.548-12.931h0a69.063,69.063,0,0,1-13.408,20.493c-7.228,7.609-16.146,13.539-22.85,21.612-7.144,8.55-12.205,18.9-18.159,28.232-2.381,3.751-5.644,10.979-10.074,11.276-5.406.345-10.574-6.239-13.515-10.788-4.763-7.24-8.74-16.3-14.587-22.624-5.108-5.561-13.015-12.681-19.969-9.454h0c-.524,1.846-1.012,3.715-1.477,5.6s-.893,3.834-1.3,5.751v.226c-.393,1.929-.762,3.87-1.107,5.811a2.382,2.382,0,0,1,0,.31q-.5,2.894-.893,5.787a187.709,187.709,0,0,0-1.774,25.494s3.013,15.992,23.208,23.982c21.433,8.49,51.333,4.894,60.656-17.325,0,0,.191-22.184,6.93-33.115.679-1.1,1.512-2.381,2.381-3.894h0l.155-.25c.774-1.191,1.607-2.536,2.512-3.941,0-.083.107-.167.167-.25a.488.488,0,0,1,0-.107c1.929-3.013,4.1-6.347,6.335-9.788l1.012-1.56c2.167-3.31,4.37-6.656,6.466-9.812h0c.7-1.06,1.393-2.1,2.084-3.108.286-.441.583-.869.857-1.3h0c.238-.345.476-.726.7-1.107l.214-.357.5-.881.214-.4.536-1.048a2.861,2.861,0,0,1,.131-.274c.226-.464.441-.941.655-1.429V223.4c.191-.452.381-.9.56-1.357a1.117,1.117,0,0,1,.119-.333c.167-.441.333-.881.488-1.322v-.262c.286-.822.548-1.679.786-2.536h0c.238-.869.452-1.75.643-2.632v-.107Z" transform="translate(-76.488 -100.586)" fill="#fff" opacity="0.1"/>
        <path id="Path_267" data-name="Path 267" d="M301.2,238.166a32.834,32.834,0,0,1-3.691,3.81c-5.43,4.918-11.776,7.287-19.159,12.074-5.954,3.87-15.158,9.526-22.91,14.348a115.823,115.823,0,0,1-25.006,11.526c-7.144,2.12-11.229,2.2-15.48-9.324-2.084-5.656-3.739-11.467-5.549-17.218q-4.013-12.848-7.907-25.732s-9.526-23.612,11.907-35.472c9.324,5.335,12.872,7.49,15.8,18.659,3.5,13.372,9.169,39.759,9.169,39.759a186.631,186.631,0,0,0,22.136-9.431c2.715-1.346,6.061-2.286,8-4.7a35.932,35.932,0,0,0,3.406-5.311c.917-1.643,1.572-3.429,2.584-5a44.308,44.308,0,0,1,7.037-7.752,2.893,2.893,0,0,1,1.7-1.012,1.977,1.977,0,0,1,1.727,1.048c.786,1.381.06,2.727-.345,4.132-.464,1.608-.929,3.215-1.381,4.763A41.973,41.973,0,0,0,296.9,214.59a6.99,6.99,0,0,1,1.072-1.357,2.072,2.072,0,0,1,1.6-.583c1.429.179,2.846,2.489,2.917,3.81a21.709,21.709,0,0,0,.107,4.037c.322,1.191,1.191,2.262,1.56,3.477a20.24,20.24,0,0,1,.81,3.858,13.217,13.217,0,0,1-2.167,8.085A19.056,19.056,0,0,1,301.2,238.166Z" transform="translate(-60.608 -102.419)" fill="#ffa8a7"/>
        <path id="Path_268" data-name="Path 268" d="M212.419,191.35c8.157,3.3,14.039,7.025,17.754,19.481s7.764,32.5,7.764,32.5.071,4.18-9.836,10.026a24.386,24.386,0,0,1-19.183,2.584l-7.478-24.053S188.175,199.661,212.419,191.35Z" transform="translate(-60.907 -102.577)" fill="#fff"/>
        <path id="Path_269" data-name="Path 269" d="M185.647,371.116c-6.549-.333-11.681-5.144-27.256-11.634-28.768-11.991-50.345-21.6-58.573-36.651s-14.039-58.561-11.979-77.4a24.232,24.232,0,0,1,1.405-6.239l-2.024-.3,5.239-4.465h0c5.382-4.382,14.122-.476,20.719,3.12,18.838,10.24,33.567,20.243,45.248,56.167,8.752,27.042,14.527,51.714,26.625,64.907" transform="translate(-82.003 -94.73)" fill="#fff"/>
        <path id="Path_270" data-name="Path 270" d="M89.244,239.194l-2.024-.3,5.239-4.465h0c5.382-4.382,14.122-.476,20.719,3.12,18.838,10.24,33.567,20.243,45.248,56.167,8.752,27.042,14.527,51.714,26.625,64.907l.631,12.479c-6.549-.333-11.681-5.144-27.256-11.634-28.8-11.979-50.38-21.588-58.608-36.639s-14.039-58.561-11.979-77.4a24.744,24.744,0,0,1,1.405-6.239Z" transform="translate(-82.003 -94.73)" opacity="0.3"/>
        <path id="Path_271" data-name="Path 271" d="M108.56,241.453c18.826,10.24,33.555,20.243,45.248,56.167s18.016,67.729,40.962,73.885c0,0-10.371,4.132-42.164-9.323-10.121-4.275-22.4-12.074-30.459-16.6-15.8-8.871-25.387-16.135-26.9-18.861-8.335-14.991-14.039-58.561-11.991-77.4S99.118,236.309,108.56,241.453Z" transform="translate(-82.839 -93.988)" fill="#fff"/>
      </g>
    </g>
    <g id="freepik--speech-bubble--inject-64" transform="translate(189.476 24.878)">
      <g id="freepik--speech-bubble--inject-64-2" data-name="freepik--speech-bubble--inject-64" transform="translate(0)">
        <path id="Path_272" data-name="Path 272" d="M195.549,111.377l-5.168-9.776,4.18-12.086V82.12l-12.8,7.395v7.395l5.5,9.526a.738.738,0,0,0,.381.333h0Z" transform="translate(-159.696 -13.959)" fill="#fff"/>
        <path id="Path_273" data-name="Path 273" d="M195.549,111.377l-5.168-9.776,4.18-12.086V82.12l-12.8,7.395v7.395l5.5,9.526a.738.738,0,0,0,.381.333h0Z" transform="translate(-159.696 -13.959)" opacity="0.2"/>
        <path id="Path_274" data-name="Path 274" d="M229.638,34.252a8.5,8.5,0,0,0-3.846-6.656l-3.12-1.8a8.478,8.478,0,0,0-7.68,0L167.064,53.53a8.49,8.49,0,0,0-3.834,6.656v52.762a8.49,8.49,0,0,0,3.834,6.644l3.132,1.81a8.478,8.478,0,0,0,7.68,0L193.3,112.5l5.5,9.526a.81.81,0,0,0,1.477-.143l5.811-16.766,19.742-11.431a8.5,8.5,0,0,0,3.81-6.668Z" transform="translate(-163.23 -24.878)" fill="#01bf71"/>
        <path id="Path_275" data-name="Path 275" d="M163.23,107.9a8.49,8.49,0,0,0,3.834,6.644l3.132,1.81a8.585,8.585,0,0,0,7.025.31c-1.81.679-3.191-.333-3.191-2.524V61.376a7.907,7.907,0,0,1,1.131-3.787L164.349,51.35a7.883,7.883,0,0,0-1.119,3.787Z" transform="translate(-163.23 -19.828)" opacity="0.2"/>
        <path id="Path_276" data-name="Path 276" d="M229.361,33.156c-.441-1.631-1.929-2.143-3.7-1.131L177.695,59.769a7.585,7.585,0,0,0-2.7,2.87L164.18,56.4a7.835,7.835,0,0,1,2.7-2.858L214.834,25.8a8.478,8.478,0,0,1,7.68,0l3.144,1.81A8.431,8.431,0,0,1,229.361,33.156Z" transform="translate(-163.049 -24.878)" fill="#fff" opacity="0.5"/>
        <g id="freepik----inject-64" transform="translate(17.853 32.22)">
          <path id="Path_277" data-name="Path 277" d="M178.231,80.256a2.81,2.81,0,0,1,.19-1.1,8.337,8.337,0,0,1,.56-1.024l10.431-16.849a.786.786,0,0,1,.167-.2L189.7,61a.286.286,0,0,1,.381,0,.691.691,0,0,1,.167.512v6.5a2.787,2.787,0,0,1-.31,1.357,8.528,8.528,0,0,1-.524.893l-5.382,8.192,5.382,2.477a2.286,2.286,0,0,1,.524.25c.2.131.31.464.31.988v4.62a1.548,1.548,0,0,1-.167.691.988.988,0,0,1-.381.476h-.119a.274.274,0,0,1-.167,0L178.982,83.2a1.061,1.061,0,0,1-.75-1.25Z" transform="translate(-178.223 -50.222)" fill="#fff"/>
          <path id="Path_278" data-name="Path 278" d="M198.71,55.942a6.667,6.667,0,0,1,.393-1.048,1.893,1.893,0,0,1,.762-.822l3.489-2.06a.31.31,0,0,1,.4,0,.726.726,0,0,1,.167.524,1.75,1.75,0,0,1,0,.393l-8.811,37.556a5.06,5.06,0,0,1-.369,1.012,1.893,1.893,0,0,1-.774.845l-3.417,1.977a.31.31,0,0,1-.4,0,.667.667,0,0,1-.167-.524,1.584,1.584,0,0,1,0-.381Z" transform="translate(-175.982 -51.937)" fill="#fff"/>
          <path id="Path_279" data-name="Path 279" d="M215.327,61.634a2.739,2.739,0,0,1-.191,1.1,8.33,8.33,0,0,1-.56,1.024L204.134,80.615a1.562,1.562,0,0,1-.167.191l-.119.1a.3.3,0,0,1-.393,0,.655.655,0,0,1-.155-.512V73.863a2.667,2.667,0,0,1,.3-1.334c.2-.357.381-.643.536-.869l4.561-7.049-4.561-1.738a1.9,1.9,0,0,1-.536-.274c-.2-.143-.3-.476-.3-1.012v-6.5a1.584,1.584,0,0,1,.155-.691,1.108,1.108,0,0,1,.393-.464h.286l10.431,4.763a1.036,1.036,0,0,1,.75,1.191Z" transform="translate(-173.441 -51.557)" fill="#fff"/>
        </g>
      </g>
    </g>
  </g>
</svg>
