<svg width="128" height="129" viewBox="0 0 128 129" fill="none" xmlns="http://www.w3.org/2000/svg">
<path d="M8.40055 32.2887L32.3031 8.38611C28.0595 10.811 24.1191 13.7122 20.5539 17.0032L17.0176 20.5395C13.7267 24.1191 10.8255 28.0451 8.40055 32.2887Z" fill="#10B981"/>
<path d="M1.27019 51.2837L51.2982 1.2558C49.9125 1.53004 48.5557 1.862 47.1989 2.22285L2.23726 47.1845C1.86198 48.5413 1.54444 49.9125 1.27019 51.2837Z" fill="#10B981"/>
<path d="M0 64C0 64.1299 0 64.2742 0 64.4041L64.4041 0C64.2742 0 64.1299 0 64 0C63.0762 0 62.138 0.0288802 61.2287 0.057748L0.057726 61.2287C0.0288582 62.1525 0 63.0763 0 64Z" fill="#10B981"/>
<path d="M0.995922 75.2874L75.2873 0.995945C74.3924 0.837171 73.4831 0.692864 72.5882 0.577393L0.577348 72.5882C0.69282 73.4832 0.837149 74.3925 0.995922 75.2874Z" fill="#10B981"/>
<path d="M3.42081 84.7127L84.7127 3.42088C83.9332 3.14664 83.1393 2.90123 82.3455 2.67029L2.67024 82.3455C2.90118 83.1394 3.161 83.9333 3.42081 84.7127Z" fill="#10B981"/>
<path d="M6.95714 93.0411L93.0555 6.9427C92.3627 6.58186 91.6554 6.24989 90.9481 5.91791L5.93232 90.9337C6.2643 91.6554 6.59629 92.3482 6.95714 93.0411Z" fill="#10B981"/>
<path d="M11.4028 100.46L100.475 11.3884C99.8538 10.9554 99.2332 10.5368 98.5981 10.1326L10.147 98.5836C10.5512 99.2332 10.9698 99.8539 11.4028 100.46Z" fill="#10B981"/>
<path d="M16.6567 107.071L107.071 16.6568C106.522 16.166 105.974 15.6752 105.411 15.1989L15.1989 105.411C15.6752 105.974 16.1515 106.522 16.6567 107.071Z" fill="#10B981"/>
<path d="M22.6901 112.888L112.888 22.6901C112.411 22.1272 111.921 21.5643 111.43 21.0158L21.0158 111.43C21.5787 111.935 22.1272 112.411 22.6901 112.888Z" fill="#10B981"/>
<path d="M29.5174 117.94L117.94 29.5174C117.535 28.8823 117.117 28.2616 116.684 27.641L27.6409 116.684C28.2616 117.102 28.8823 117.521 29.5174 117.94Z" fill="#10B981"/>
<path d="M37.1818 122.125L122.125 37.1818C121.793 36.4745 121.461 35.7673 121.101 35.0745L35.06 121.115C35.7672 121.461 36.4745 121.808 37.1818 122.125Z" fill="#10B981"/>
<path d="M45.7988 125.373L125.387 45.7844C125.156 44.9905 124.897 44.1967 124.637 43.4172L43.4316 124.622C44.1966 124.897 44.9905 125.142 45.7988 125.373Z" fill="#10B981"/>
<path d="M55.5706 127.452L127.451 55.5706C127.336 54.6613 127.192 53.752 127.033 52.8571L52.857 127.033C53.7663 127.206 54.6613 127.336 55.5706 127.452Z" fill="#10B981"/>
<path d="M64 128.014C64.9959 128.014 65.9775 127.986 66.9445 127.942L127.928 66.959C127.971 65.9775 128 64.996 128 64.0145C128 63.9279 128 63.8556 128 63.769L63.7546 128.014C63.8412 128.014 63.9278 128.014 64 128.014Z" fill="#10B981"/>
<path d="M81.0465 125.72L125.719 81.0465C126.095 79.6897 126.427 78.3185 126.715 76.9328L76.9328 126.715C78.3184 126.427 79.6897 126.08 81.0465 125.72Z" fill="#10B981"/>
<path d="M119.383 96.1155L96.101 119.397C105.743 113.783 113.783 105.743 119.383 96.1155Z" fill="#10B981"/>
</svg>
