<svg width="109" height="109" viewBox="0 0 109 109" fill="none" xmlns="http://www.w3.org/2000/svg">
<path d="M104.797 8.4055C102.481 8.4055 100.594 6.51856 100.594 4.20276C100.594 1.88695 102.481 0 104.797 0C107.113 0 109 1.88695 109 4.20276C109 6.53286 107.113 8.4055 104.797 8.4055ZM109 29.3478C109 27.032 107.113 25.1451 104.797 25.1451C102.481 25.1451 100.594 27.032 100.594 29.3478C100.594 31.6636 102.481 33.5506 104.797 33.5506C107.113 33.5506 109 31.6779 109 29.3478ZM109 54.4929C109 52.1771 107.113 50.2901 104.797 50.2901C102.481 50.2901 100.594 52.1771 100.594 54.4929C100.594 56.8087 102.481 58.6956 104.797 58.6956C107.113 58.7099 109 56.823 109 54.4929ZM109 79.6522C109 77.3364 107.113 75.4494 104.797 75.4494C102.481 75.4494 100.594 77.3364 100.594 79.6522C100.594 81.968 102.481 83.855 104.797 83.855C107.113 83.855 109 81.968 109 79.6522ZM109 104.797C109 102.481 107.113 100.594 104.797 100.594C102.481 100.594 100.594 102.481 100.594 104.797C100.594 107.113 102.481 109 104.797 109C107.113 109 109 107.113 109 104.797ZM83.8549 4.20276C83.8549 1.88695 81.968 0 79.6522 0C77.3364 0 75.4494 1.88695 75.4494 4.20276C75.4494 6.51856 77.3364 8.4055 79.6522 8.4055C81.968 8.4055 83.8549 6.53286 83.8549 4.20276ZM83.8549 29.3478C83.8549 27.032 81.968 25.1451 79.6522 25.1451C77.3364 25.1451 75.4494 27.032 75.4494 29.3478C75.4494 31.6636 77.3364 33.5506 79.6522 33.5506C81.968 33.5506 83.8549 31.6779 83.8549 29.3478ZM83.8549 54.4929C83.8549 52.1771 81.968 50.2901 79.6522 50.2901C77.3364 50.2901 75.4494 52.1771 75.4494 54.4929C75.4494 56.8087 77.3364 58.6956 79.6522 58.6956C81.968 58.7099 83.8549 56.823 83.8549 54.4929ZM83.8549 79.6522C83.8549 77.3364 81.968 75.4494 79.6522 75.4494C77.3364 75.4494 75.4494 77.3364 75.4494 79.6522C75.4494 81.968 77.3364 83.855 79.6522 83.855C81.968 83.855 83.8549 81.968 83.8549 79.6522ZM83.8549 104.797C83.8549 102.481 81.968 100.594 79.6522 100.594C77.3364 100.594 75.4494 102.481 75.4494 104.797C75.4494 107.113 77.3364 109 79.6522 109C81.968 109 83.8549 107.113 83.8549 104.797ZM58.6956 4.20276C58.6956 1.88695 56.8087 0 54.4928 0C52.177 0 50.2901 1.88695 50.2901 4.20276C50.2901 6.51856 52.177 8.4055 54.4928 8.4055C56.8229 8.4055 58.6956 6.53286 58.6956 4.20276ZM58.6956 29.3478C58.6956 27.032 56.8087 25.1451 54.4928 25.1451C52.177 25.1451 50.2901 27.032 50.2901 29.3478C50.2901 31.6636 52.177 33.5506 54.4928 33.5506C56.8229 33.5506 58.6956 31.6779 58.6956 29.3478ZM58.6956 54.4929C58.6956 52.1771 56.8087 50.2901 54.4928 50.2901C52.177 50.2901 50.2901 52.1771 50.2901 54.4929C50.2901 56.8087 52.177 58.6956 54.4928 58.6956C56.8229 58.7099 58.6956 56.823 58.6956 54.4929ZM58.6956 79.6522C58.6956 77.3364 56.8087 75.4494 54.4928 75.4494C52.177 75.4494 50.2901 77.3364 50.2901 79.6522C50.2901 81.968 52.177 83.855 54.4928 83.855C56.8229 83.855 58.6956 81.968 58.6956 79.6522ZM58.6956 104.797C58.6956 102.481 56.8087 100.594 54.4928 100.594C52.177 100.594 50.2901 102.481 50.2901 104.797C50.2901 107.113 52.177 109 54.4928 109C56.8229 109 58.6956 107.113 58.6956 104.797ZM33.5505 4.20276C33.5505 1.88695 31.6636 0 29.3478 0C27.032 0 25.1451 1.88695 25.1451 4.20276C25.1451 6.51856 27.032 8.4055 29.3478 8.4055C31.6779 8.4055 33.5505 6.53286 33.5505 4.20276ZM33.5505 29.3478C33.5505 27.032 31.6636 25.1451 29.3478 25.1451C27.032 25.1451 25.1451 27.032 25.1451 29.3478C25.1451 31.6636 27.032 33.5506 29.3478 33.5506C31.6779 33.5506 33.5505 31.6779 33.5505 29.3478ZM33.5505 54.4929C33.5505 52.1771 31.6636 50.2901 29.3478 50.2901C27.032 50.2901 25.1451 52.1771 25.1451 54.4929C25.1451 56.8087 27.032 58.6956 29.3478 58.6956C31.6779 58.7099 33.5505 56.823 33.5505 54.4929ZM33.5505 79.6522C33.5505 77.3364 31.6636 75.4494 29.3478 75.4494C27.032 75.4494 25.1451 77.3364 25.1451 79.6522C25.1451 81.968 27.032 83.855 29.3478 83.855C31.6779 83.855 33.5505 81.968 33.5505 79.6522ZM33.5505 104.797C33.5505 102.481 31.6636 100.594 29.3478 100.594C27.032 100.594 25.1451 102.481 25.1451 104.797C25.1451 107.113 27.032 109 29.3478 109C31.6779 109 33.5505 107.113 33.5505 104.797ZM8.40552 4.20276C8.40552 1.88695 6.51856 0 4.20276 0C1.88695 0 0 1.88695 0 4.20276C0 6.51856 1.88695 8.4055 4.20276 8.4055C6.51856 8.4055 8.40552 6.53286 8.40552 4.20276ZM8.40552 29.3478C8.40552 27.032 6.51856 25.1451 4.20276 25.1451C1.88695 25.1451 0 27.032 0 29.3478C0 31.6636 1.88695 33.5506 4.20276 33.5506C6.51856 33.5506 8.40552 31.6779 8.40552 29.3478ZM8.40552 54.4929C8.40552 52.1771 6.51856 50.2901 4.20276 50.2901C1.88695 50.2901 0 52.1771 0 54.4929C0 56.8087 1.88695 58.6956 4.20276 58.6956C6.51856 58.6956 8.40552 56.823 8.40552 54.4929ZM8.40552 79.6522C8.40552 77.3364 6.51856 75.4494 4.20276 75.4494C1.88695 75.4494 0 77.3364 0 79.6522C0 81.968 1.88695 83.855 4.20276 83.855C6.51856 83.855 8.40552 81.968 8.40552 79.6522ZM8.40552 104.797C8.40552 102.481 6.51856 100.594 4.20276 100.594C1.88695 100.594 0 102.481 0 104.797C0 107.113 1.88695 109 4.20276 109C6.51856 109 8.40552 107.113 8.40552 104.797Z" fill="#10B981"/>
</svg>
